<svg width="91" height="91" viewBox="0 0 91 91" fill="none" xmlns="http://www.w3.org/2000/svg">
<path d="M8.53125 65.4062C9.09154 65.407 9.64644 65.297 10.1641 65.0826C10.6817 64.8682 11.1519 64.5536 11.5476 64.157L35.5469 40.1575L45.3274 49.9382C45.7235 50.3343 46.1938 50.6486 46.7113 50.8629C47.2289 51.0773 47.7836 51.1877 48.3438 51.1877C48.9039 51.1877 49.4586 51.0773 49.9762 50.8629C50.4937 50.6486 50.964 50.3343 51.3601 49.9382L78.2015 23.0968L78.1999 32.7031C78.1999 33.8344 78.6493 34.9194 79.4493 35.7194C80.2493 36.5193 81.3342 36.9688 82.4656 36.9688C83.5969 36.9688 84.6818 36.5193 85.4818 35.7194C86.2818 34.9194 86.7312 33.8344 86.7312 32.7031L86.7344 12.7969C86.7344 11.6656 86.285 10.5806 85.485 9.78062C84.685 8.98066 83.6001 8.53125 82.4688 8.53125H62.5625C61.4312 8.53125 60.3462 8.98066 59.5463 9.78062C58.7463 10.5806 58.2969 11.6656 58.2969 12.7969C58.2969 13.9282 58.7463 15.0132 59.5463 15.8131C60.3462 16.6131 61.4312 17.0625 62.5625 17.0625H72.1706L48.3438 40.8894L38.5632 31.1087C38.1671 30.7125 37.6969 30.3983 37.1793 30.1839C36.6618 29.9696 36.1071 29.8592 35.5469 29.8592C34.9867 29.8592 34.432 29.9696 33.9144 30.1839C33.3969 30.3983 32.9267 30.7125 32.5306 31.1087L5.51492 58.1243C4.91833 58.7209 4.51205 59.4809 4.34745 60.3084C4.18284 61.1359 4.26732 61.9936 4.59018 62.773C4.91305 63.5525 5.45981 64.2187 6.16132 64.6874C6.86283 65.1561 7.68757 65.4063 8.53125 65.4062Z" fill="black"/>
<path d="M82.4695 73.9375H8.53198C7.40067 73.9375 6.31569 74.3869 5.51573 75.1869C4.71577 75.9868 4.26636 77.0718 4.26636 78.2031C4.26636 79.3344 4.71577 80.4194 5.51573 81.2194C6.31569 82.0193 7.40067 82.4688 8.53198 82.4688H82.4695C83.6008 82.4688 84.6858 82.0193 85.4857 81.2194C86.2857 80.4194 86.7351 79.3344 86.7351 78.2031C86.7351 77.0718 86.2857 75.9868 85.4857 75.1869C84.6858 74.3869 83.6008 73.9375 82.4695 73.9375Z" fill="black"/>
</svg>
