<svg width="91" height="91" viewBox="0 0 91 91" fill="none" xmlns="http://www.w3.org/2000/svg">
<g clip-path="url(#clip0)">
<path d="M77.0734 41.1287C75.1256 41.1287 73.2833 41.5444 71.6091 42.2793C70.9574 42.5653 70.2053 42.5032 69.6095 42.1138C69.0138 41.7243 68.656 41.0606 68.656 40.349V28.592C68.656 25.0509 65.7866 22.1824 62.2454 22.1824H49.1068C48.4 22.1824 47.7403 21.828 47.3499 21.2386C46.9597 20.6492 46.8901 19.9031 47.1665 19.2526C47.8618 17.6151 48.2534 15.8207 48.2534 13.9266C48.2534 6.23468 42.0179 0 34.3268 0C26.6347 0 20.4026 6.23468 20.4026 13.9266C20.4026 15.8207 20.793 17.6153 21.4882 19.2527C21.7646 19.9036 21.696 20.6498 21.3055 21.2393C20.9151 21.8289 20.255 22.1824 19.5479 22.1824H6.41077C2.86944 22.1826 0 25.0511 0 28.5922V84.4285C0 87.9683 2.86944 90.8378 6.41077 90.8378H19.0804C19.7579 90.8378 20.391 90.5137 20.7884 89.9641C21.1825 89.4166 21.2958 88.713 21.0803 88.0698C20.6453 86.7498 20.4028 85.3449 20.4028 83.8759C20.4028 76.1855 26.6349 69.9491 34.327 69.9491C42.0181 69.9491 48.2536 76.1853 48.2536 83.8759C48.2536 85.3451 48.0087 86.75 47.5727 88.0698C47.3606 88.7128 47.4712 89.4164 47.8654 89.9641C48.262 90.5137 48.8984 90.8378 49.5726 90.8378H62.2456C65.7869 90.8378 68.6562 87.9683 68.6562 84.4285V69.7584C68.6562 69.0471 69.0151 68.3839 69.6107 67.9946C70.206 67.6055 70.9582 67.5423 71.6095 67.8283C73.2836 68.5632 75.1258 68.9791 77.0736 68.9791C84.7657 68.9791 91.0002 62.7457 91.0002 55.0557C91 47.3632 84.7655 41.1287 77.0734 41.1287Z" fill="black"/>
</g>
<defs>
<clipPath id="clip0">
<rect width="91" height="91" fill="white"/>
</clipPath>
</defs>
</svg>
