<svg width="526" height="523" viewBox="0 0 526 523" fill="none" xmlns="http://www.w3.org/2000/svg">
<path d="M522.448 128.374L518.427 128.005L518.072 124.53C517.924 123.042 516.67 121.917 515.198 121.917H508.799C508.456 121.917 508.101 121.977 507.781 122.102L504.02 123.524L501.418 122.774L496.042 118.454C495.438 117.96 494.646 117.751 493.883 117.841L489.022 118.46L483.77 119.572H480.44C480.452 118.59 480.239 117.757 479.796 117.079C479.127 116.061 478.033 115.472 476.779 115.472C476.158 115.46 473.917 114.728 472.095 113.949C471.279 113.592 470.321 113.639 469.546 114.085C469.186 114.294 468.866 114.573 468.641 114.895L468.357 114.27C468.139 113.77 467.772 113.336 467.323 113.032C465.235 111.64 462.993 109.592 462.71 108.884L462.112 106.539C462.053 106.337 461.988 106.141 461.899 105.956C456.701 95.5002 453.915 96.4286 452.649 96.863C451.668 97.1011 447.297 96.988 443.808 96.738C443.341 96.6904 442.885 96.7797 442.459 96.9642L439.23 98.3567C438.231 98.1961 436.705 98.1068 435.161 98.6245C434.552 98.7674 432.589 98.4698 430.726 97.9521C428.224 97.4938 423.848 96.8333 421.576 97.3451C420.63 97.107 418.14 95.7323 416.07 94.2862L409.523 89.8883L404.881 83.5266C404.532 83.1874 402.71 81.5032 399.351 81.5032C399.28 81.5032 399.191 81.5033 399.103 81.5092L398.009 78.2123C397.949 78.0397 397.813 77.766 397.725 77.6053C397.701 77.5696 397.198 76.6293 397.506 75.0106C397.902 73.0646 397.701 71.3626 397.541 69.9938C397.423 69.006 397.34 68.155 397.482 67.5241L398.068 65.1794C398.145 64.8521 398.18 64.5188 398.145 64.1856C397.695 59.6925 396.737 57.7405 394.714 57.2347C393.644 56.9729 392.142 57.2288 391.124 58.7641L385.204 68.8869C385.169 68.9405 385.145 69 385.11 69.0536C384.915 69.1071 384.654 69.1607 384.323 69.2202L382.856 69.4701C381.118 69.7737 381.023 69.7379 378.971 69.7677H373.116V69.7439C373.116 69.6189 373.116 69.488 373.098 69.363L373.116 65.0544C373.116 64.3463 372.867 63.6619 372.4 63.1263C371.483 62.0848 370.585 60.6804 370.265 59.8591C372.619 57.9131 374.724 55.2708 374.825 55.1518C375.458 54.3544 375.629 53.2772 375.263 52.3191C374.908 51.361 374.086 50.6647 373.086 50.4802L366.959 49.3614C366.001 48.9924 363.458 48.0938 361.512 48.0938C360.365 48.0938 357.195 47.7487 355.456 47.5285C354.965 47.4749 354.48 47.5285 354.025 47.7189L353.889 47.7725L352.582 44.1542C352.434 43.7555 352.209 43.3925 351.914 43.089L349.577 40.7442C349.365 40.524 349.104 40.3396 348.826 40.1967L343.025 37.2688C342.616 37.0664 342.167 36.9653 341.712 36.9653L337.625 37.0188C336.933 36.876 335.679 36.3523 335.383 35.9C334.751 34.9538 334.212 34.448 333.816 34.085C333.444 33.7457 333.231 33.5553 332.758 32.3353L331.693 29.7109C331.184 26.7592 329.422 23.4861 325.986 23.4861C324.43 23.4861 321.734 23.7241 319.947 23.8967L318.924 22.2363C318.416 21.5877 315.742 18.4336 312.371 18.2253C312.105 16.4043 311.668 14.9343 311.413 14.1667V11.7446C311.413 10.1378 310.13 8.84043 308.527 8.84043C306.936 8.84043 305.641 10.1378 305.641 11.7446V14.6725C305.641 15.0415 305.724 15.4045 305.848 15.7437C305.86 15.7675 306.8 18.2432 306.8 21.1175C306.8 22.8493 306.8 24.8132 308.923 25.4559C310.177 25.8248 311.313 25.0869 312.005 24.0217C312.478 24.0336 313.708 24.9679 314.205 25.5451L315.949 28.4671C316.541 29.4431 317.617 29.9668 318.747 29.8597C320.054 29.7169 323.596 29.3598 325.53 29.3003C325.731 29.6692 325.95 30.3536 326.027 30.8952C326.063 31.1273 326.134 31.3594 326.211 31.5795L327.382 34.4956C328.275 36.751 329.049 37.5782 329.895 38.3578C330.179 38.6137 330.321 38.7625 330.575 39.1255C332.302 41.744 335.792 42.5712 337.045 42.7676H341.031L345.822 45.1778L347.371 46.731L349.471 52.569C349.743 53.307 350.287 53.908 351.003 54.2294C351.718 54.5508 352.529 54.5627 353.268 54.2711L355.486 53.3724C356.941 53.545 360.022 53.8902 361.512 53.8902C362.24 53.8902 363.931 54.3901 365.09 54.8602C365.268 54.9316 365.457 54.9852 365.646 55.015L366.758 55.2232C366.581 55.3839 366.374 55.5446 366.178 55.6934C365.167 56.4611 364.523 57.5977 364.392 58.901C364.132 61.5373 366.084 64.501 367.349 66.0959V72.6659C367.349 74.2727 368.645 75.57 370.224 75.57H378.965C381.538 75.57 381.715 75.5581 383.826 75.1891L385.258 74.9392C386.919 74.6655 389.238 74.0703 390.22 72.1422C390.35 71.8922 390.444 71.5709 390.503 71.2317L391.657 69.1905C391.692 69.6963 391.751 70.1843 391.805 70.6544C391.941 71.8089 392.053 72.8087 391.84 73.8561C391.219 77.0459 392.124 79.343 392.603 80.2773L394.271 85.3C395.182 88.0495 395.785 89.8407 398.168 89.6146C399.138 89.5134 400.031 88.5374 400.51 87.502C400.605 87.5377 400.676 87.5793 400.735 87.6091L405.159 93.7089C405.348 93.9827 405.602 94.2207 405.886 94.4171L412.806 99.0649C419.832 104.004 422.174 103.207 422.878 102.981C423.652 102.82 426.834 103.13 429.395 103.582C430.885 104.004 434.576 104.909 436.93 104.129C437.562 103.909 438.373 104.064 438.586 104.129C439.254 104.355 439.993 104.32 440.644 104.04L444.08 102.552C446.806 102.731 450.751 102.909 453.099 102.624C453.957 103.6 455.4 105.938 456.571 108.247L457.079 110.277C457.759 113.026 461.308 115.883 463.39 117.359L465.389 121.875C465.856 122.929 466.891 123.601 468.026 123.601H470.357C471.8 123.601 473.018 122.536 473.219 121.108L473.29 120.572C473.621 120.679 473.946 120.774 474.278 120.858C474.218 121.018 474.159 121.173 474.1 121.316C473.728 122.215 473.81 123.244 474.36 124.054C474.881 124.869 475.792 125.363 476.756 125.363L484.302 125.303L489.926 124.167L493.374 123.732L498.236 127.648C498.532 127.886 498.869 128.065 499.247 128.172L503.316 129.35C503.908 129.511 504.54 129.493 505.138 129.279L509.295 127.702H512.56L512.891 130.951C513.039 132.337 514.133 133.432 515.505 133.557L518.291 133.807L515.239 137.622C514.837 138.134 514.606 138.777 514.606 139.443V140.431L508.674 145.418C508.018 145.965 507.639 146.781 507.639 147.65V148.548L502.849 156.035C502.553 156.505 502.394 157.052 502.394 157.606V168.562L495.202 181.363C494.971 181.755 494.847 182.196 494.829 182.648L494.291 194.032L492.541 204.572C492.393 205.494 492.688 206.434 493.351 207.101L497.089 210.874L497.331 211.344L495.634 214.052L493.587 215.29C491.145 216.099 488.495 216.789 487.821 216.801C487.301 216.772 486.094 215.879 485.893 215.278C485.591 214.349 484.663 211.529 476.17 211.529C475.313 211.529 474.496 211.91 473.952 212.576L468.133 219.61C467.121 220.842 467.281 222.675 468.505 223.699L471.794 226.442L472.45 227.109L471.687 228.251L466.826 232.054C466.418 232.369 466.098 232.792 465.921 233.268L464.324 237.279H462.775C461.923 237.279 461.13 237.654 460.574 238.303L454.566 245.438L451.656 249.699C451.289 250.252 451.112 250.931 451.171 251.609L451.603 256.406C450.041 257.525 447.339 259.381 445.192 260.464C444.281 260.923 441.531 262.309 441.123 264.85C441.052 265.225 441.052 265.588 441.099 265.928C440.531 267.6 439.502 271.01 439.502 273.599C439.502 276.044 439.875 277.056 440.52 278.633C440.721 279.127 440.969 279.716 441.259 280.532V287.084C441.259 287.857 441.566 288.595 442.099 289.143L444.441 291.487C445.564 292.612 447.38 292.612 448.515 291.487L450.852 289.143C451.064 288.923 451.26 288.661 451.396 288.381L455.34 280.02L459.368 279.99L466.885 281.329V290.012C466.885 290.637 467.086 291.244 467.453 291.749L469.014 293.802L471.332 297.903C471.652 298.474 472.166 298.92 472.775 299.164L473.87 299.605V303.39L473.385 304.366L465.371 309.198C464.691 309.615 464.212 310.299 464.04 311.078C463.869 311.864 464.028 312.691 464.496 313.346L469.724 320.951C470.031 321.386 470.439 321.731 470.93 321.951L474.632 323.612L475.052 327.795C475.123 328.456 475.419 329.086 475.898 329.557L478.66 332.258L481.103 333.901L481.239 334.698L474.526 341.447L465.436 340.429C465.016 340.382 464.602 340.423 464.218 340.56L460.705 341.727C456.387 343.179 455.222 348.195 455.222 350.927C455.222 352.058 455.885 353.081 456.896 353.557L464.164 356.967L464.561 360.621C464.708 361.913 465.684 362.954 466.962 363.162L475.277 364.555C475.265 364.811 475.23 365.043 475.177 365.222C474.526 367.144 473.958 370.554 473.97 370.607L472.959 374.178L469.227 379.022C468.831 379.528 468.624 380.153 468.624 380.801L468.647 383.313L468.062 387.419C467.932 388.401 468.292 389.389 469.044 390.032L472.817 393.275L474.91 396.453C475.253 396.959 475.744 397.346 476.306 397.566L480.813 399.262L486.041 401.607C486.413 401.767 486.816 401.85 487.224 401.85L491.577 401.839L502.382 400.91V402.225L500.134 405.844L495.196 410.253C494.084 411.247 493.913 412.937 494.794 414.145L499.578 420.68L493.085 420.704L483.776 422.459C482.906 422.626 482.143 423.203 481.729 424.018L479.659 428.172L468.943 437.42L463.703 440.342C462.999 440.729 462.485 441.407 462.307 442.199C462.112 442.984 462.26 443.812 462.704 444.49L464.046 446.537L458.93 448.906L453.998 450.019C450.899 450.715 450.124 451.108 448.947 451.899C448.445 452.25 447.741 452.726 445.399 453.661C444.399 454.065 443.755 454.208 443.364 454.256C443.063 453.387 442.382 452.697 441.489 452.417L434.233 450.173C432.039 448.918 424.788 444.841 420.139 443.08C420.252 442.651 420.264 442.187 420.187 441.723C419.944 440.568 419.039 439.664 417.874 439.449L392.857 434.76C391.799 434.576 390.71 434.974 390.048 435.831C390.013 435.879 387.002 439.604 382.034 439.914C382.348 438.914 383.063 437.48 383.412 436.766C384.181 435.218 384.731 434.105 384.731 432.951C384.731 429.059 380.479 428.547 367.054 427.512C365.244 427.369 363.6 427.244 362.34 427.119C359.265 426.815 357.029 427.506 355.639 429.184C354.859 430.118 354.516 431.213 354.439 432.237C352.28 433.969 346.904 437.855 340.387 439.503C340.056 439.586 339.742 439.729 339.47 439.92C326.299 448.989 320.568 462.117 322.39 478.929C322.437 479.334 322.473 479.637 322.485 479.81C322.485 481.601 323.904 484.654 325.631 487.713C324.537 487.737 323.703 487.689 323.384 487.6C321.722 487.034 319.616 487.171 317.197 487.314C316.085 487.38 314.909 487.445 313.743 487.445H294.771C288.395 484.702 281.411 481.565 280.399 480.893L279.767 480.447C278.152 479.304 276.005 477.769 271.871 477.513C271.765 476.62 271.499 475.585 270.907 474.412C269.63 471.877 268.234 469.021 265.472 469.645C265.366 469.669 265.253 469.705 265.153 469.741C262.58 469.419 256.642 468.705 253.774 468.705C251.923 468.705 247.292 466.497 244.737 464.998C244.169 464.652 243.471 464.533 242.827 464.635C242.661 464.664 238.669 465.343 234.701 468.015C232.353 469.604 231.59 470.955 231.359 472.502C230.218 473.109 229.36 472.674 228.727 472.198C226.439 470.478 224.28 470.937 222.541 471.312C221.293 471.579 219.992 471.865 218.005 471.639C217.958 471.633 217.91 471.633 217.869 471.621C217.36 470.722 216.574 470.038 215.929 469.544C212.245 466.723 209.778 467.426 207.572 468.378C207.241 468.527 206.892 468.693 206.502 468.788C205.526 469.038 204.893 468.979 203.728 468.866C202.906 468.788 201.978 468.705 200.795 468.705C200.44 468.705 200.192 468.705 200.008 468.705C199.417 468.437 198.441 468.104 196.188 467.598C193.053 466.896 191.628 467.176 190.433 467.866C190.421 467.866 190.161 467.866 189.049 467.646C189.014 467.455 189.168 466.908 189.333 466.592C189.895 465.616 189.836 464.396 189.185 463.48C188.541 462.558 187.411 462.099 186.317 462.296C186.258 462.314 180.438 463.343 176.458 462.337C175.05 461.986 175.039 461.962 174.435 460.499C173.921 459.29 173.229 457.618 171.561 455.642C169.751 453.536 168.841 452.465 167.001 452.881C166.203 453.054 165.416 453.821 164.961 454.625C164.884 454.631 164.795 454.631 164.689 454.631C162.79 454.631 162.506 454.351 162.163 454.006C161.696 453.554 161.016 452.857 160.241 452.673C159.538 452.072 157.675 448.852 156.255 445.781C155.64 444.437 154.097 443.788 152.73 444.24L151.169 444.734L148.33 440.318C149.164 439.973 149.809 439.247 150.045 438.331C150.637 435.909 152.754 428.97 155.238 426.048C157.006 423.989 158.514 421.816 158.041 419.751C158.757 417.913 160.064 414.348 161.631 409.194C162.199 407.349 162.631 405.939 162.903 404.832L162.997 404.558L162.962 404.552C163.258 403.219 163.269 402.374 162.938 401.779C162.95 383.033 163.08 356.218 163.482 353.052C164.097 348.19 164.097 346.952 164.097 335.121C164.097 326.236 163.583 324.153 161.288 322.969C161.034 322.6 160.939 321.713 160.833 320.594C160.697 319.243 160.513 317.41 159.934 315.072L159.39 312.911C159.218 311.34 158.84 307.538 158.84 305.824V301.497L159.502 298.891L162.589 306.871C163.057 308.091 164.316 308.853 165.594 308.71C166.889 308.573 167.924 307.573 168.125 306.276C168.817 301.866 170.012 294.731 170.449 293.13C171.449 289.518 168.959 287.102 166.073 284.316L164.417 282.692C163.518 281.799 162.974 281.103 162.53 280.573C160.756 278.383 159.656 277.669 155.753 277.175C152.772 276.8 144.794 270.665 142.179 268.647C141.204 267.891 140.464 267.332 140.216 267.183C138.442 265.588 131.646 254.454 131.493 251.937C131.493 250.615 131.658 248.955 131.847 247.283C132.167 244.272 132.463 241.427 131.995 239.499L131.788 238.678C131.221 236.148 130.239 231.911 126.56 228.221C124.999 226.65 123.71 225.353 122.172 225.817C121.279 225.091 120.197 224.157 119.286 223.377C117.488 221.83 115.465 220.092 113.448 218.563C111.763 217.301 111.716 216.528 111.627 214.986C111.544 213.57 111.432 211.63 109.894 209.708C107.274 206.399 103.365 207.274 100.224 207.976C97.9238 208.488 95.1442 208.63 94.4285 208.571C94.4167 208.547 94.4049 208.517 94.3812 208.47C93.985 207.768 93.4527 206.827 92.3881 205.56C88.6386 201.025 81.6776 199.829 78.5431 199.829C77.9103 199.835 77.6027 199.835 77.3662 199.793C76.828 199.638 75.7516 199.317 72.0257 198.692L70.2396 198.401C68.7965 198.162 67.5546 197.966 67.3535 197.895C67.1938 197.74 67.04 197.532 66.8271 197.258C66.5078 196.859 66.1115 196.359 65.5674 195.734C64.5265 194.556 62.3856 192.11 59.8839 193.402C59.4167 193.646 59.0263 193.991 58.7484 194.401C56.2703 194.83 53.538 194.919 52.6686 194.39C51.61 193.753 49.1911 192.283 47.34 193.979H47.2808C47.6534 192.122 47.4346 189.896 46.1985 187.379C45.6722 186.338 45.0926 185.326 44.3356 184.6C44.6076 184.546 44.8737 184.481 45.0985 184.41C46.1453 184.058 46.9851 183.297 47.4405 182.267C48.4459 180.041 47.3518 177.018 46.8373 175.822C46.6362 175.334 46.2932 174.918 45.8732 174.608L43.1113 172.626C43.8447 172.478 44.5603 172.21 45.2227 171.769C47.9373 169.948 47.9728 166.735 47.5706 165.128C47.2512 163.843 46.0921 162.932 44.7614 162.932H31.7088C31.8744 162.563 31.969 162.158 31.969 161.736V158.689C32.8739 158.606 33.8438 158.326 34.7664 157.713C36.3692 156.636 38.0192 154.291 38.9951 152.72L46.2163 151.744L52.852 151.191C53.9343 151.345 56.844 151.637 60.8597 151.024L63.9174 150H72.765C73.3327 150 73.8827 149.834 74.3677 149.518L77.857 147.174C78.6673 146.638 79.1463 145.727 79.1463 144.757V142.383H80.3233C81.2813 142.383 82.8486 142.234 84.4159 142.073C85.7584 141.937 87.095 141.794 87.9052 141.794C88.8396 141.794 90.3951 142.032 91.3768 142.204L94.7597 144.769L95.0554 145.662C95.6764 147.56 97.8765 151.988 98.3674 152.875L101.289 156.981C101.821 157.743 102.697 158.195 103.631 158.195H111.189C111.952 158.195 112.691 157.891 113.236 157.35L120.818 150.613L128.216 155.368C128.695 155.69 129.251 155.856 129.819 155.856H132.149C133.752 155.856 135.035 154.559 135.035 152.952V151.845L135.857 153.988C136.277 155.112 137.359 155.856 138.548 155.856H143.209C143.711 155.856 144.202 155.725 144.628 155.481L150.087 152.375L152.009 151.946C153.103 152.482 154.487 152.839 155.835 152.167C157.03 151.565 157.734 150.328 157.734 148.852C157.734 146.156 155.457 144.49 154.014 143.704L151.914 139.889C151.891 137.783 151.796 132.784 151.258 130.57C150.802 128.755 149.886 122.959 149.554 120.876C149.531 120.679 149.472 120.483 149.407 120.298C149.407 120.292 147.68 115.68 147.141 114.085C147.088 113.586 147.561 112.032 148.123 110.896C148.431 110.277 148.508 109.563 148.336 108.89C148.253 108.539 147.408 105.409 144.811 103.665C144.273 103.302 143.569 102.481 142.978 101.677L144.113 99.0292C144.563 97.9342 144.326 96.6726 143.498 95.8275C141.973 94.3041 140.393 92.4414 139.778 91.4892C139.778 91.4832 139.778 91.4773 139.778 91.4654C139.944 91.5844 140.133 91.6856 140.311 91.7629L144.391 93.5185C144.823 93.7089 145.308 93.7863 145.787 93.7447L158.455 92.4949L160.36 91.876C159.549 94.5123 158.751 99.0173 161.714 101.16C161.761 101.439 161.477 102.237 161.17 102.719C160.703 103.433 160.567 104.314 160.803 105.135L163.122 113.187C163.435 114.252 164.316 115.05 165.41 115.24C166.504 115.436 167.593 114.978 168.243 114.074L171.319 109.789L177.375 110.646C177.375 110.646 190.232 114.175 192.568 114.764C195.342 115.46 197.595 115.46 200.363 114.764C201.629 114.443 205.378 114.621 207.525 114.835C208.117 114.901 208.696 114.776 209.199 114.496L215.61 110.985C215.787 110.878 215.965 110.759 216.118 110.622L220.779 106.522C221.4 105.968 221.755 105.171 221.755 104.332C221.755 103.493 221.4 102.701 220.779 102.148L217.106 98.9102V94.9706L220.554 91.4594L228.284 85.9071L240.597 82.5209C240.94 82.4257 241.254 82.2709 241.537 82.0627L249.522 76.183H256.725C257.429 76.183 258.121 75.9152 258.659 75.4391L264.479 70.1664C264.668 69.9879 264.851 69.7796 264.987 69.5475L267.897 64.8581C268.116 64.5248 268.252 64.1558 268.305 63.769L273.001 33.4422V23.0814L274.763 19.9868L278.874 15.8449H281.748C282.239 15.8449 282.73 15.7199 283.144 15.4759L287.39 13.1014C289.022 13.4406 291.95 13.762 295.084 12.7741C298.911 11.572 302.01 10.3699 302.507 10.114L308.918 6.01366C310.26 5.15075 310.656 3.35352 309.805 2.00262C308.941 0.651725 307.179 0.253001 305.813 1.11591L299.916 4.96031C299.881 4.97222 296.971 6.10293 293.369 7.23958C290.595 8.09654 287.91 7.25744 287.91 7.25744C287.136 6.99559 286.302 7.0789 285.592 7.47167L280.997 10.0366H277.685C276.922 10.0366 276.183 10.3401 275.644 10.8876L270.393 16.1603C270.227 16.3388 270.061 16.5471 269.937 16.7732L267.595 20.8735C267.359 21.3139 267.223 21.8079 267.223 22.3196L267.258 32.9959L262.692 62.2872L260.303 66.1256L255.613 70.3807H248.575C247.96 70.3807 247.363 70.577 246.872 70.9401L238.563 77.0637L226.279 80.444C225.948 80.5332 225.646 80.682 225.356 80.8843L216.846 87.0497L212.185 91.7332C211.653 92.2807 211.346 93.0186 211.346 93.7863V100.231C211.346 101.064 211.701 101.862 212.333 102.415L214.504 104.332L212.57 106.034L207.218 108.973C205.272 108.813 201.191 108.569 198.973 109.128C197.11 109.604 195.851 109.598 193.97 109.128C191.651 108.539 178.895 105.034 178.546 104.962L170.384 103.796C169.314 103.623 168.273 104.094 167.646 104.974L167.031 105.837L166.688 104.683C167.924 102.035 167.995 98.7733 165.505 96.9582C165.245 96.3572 165.623 94.1553 166.256 92.5187C166.54 91.8224 166.54 91.0488 166.256 90.3585C165.245 87.8233 162.666 85.4667 159.39 86.282L157.456 86.7938L145.994 87.9007L142.907 86.5676L138.53 83.2588C137.602 82.5566 136.342 82.4852 135.349 83.0743C134.349 83.6575 133.793 84.7883 133.929 85.9487C134.16 87.7221 134.249 89.8467 134.219 90.1621C133.527 91.5725 133.273 93.3995 138.046 98.5234L137.058 100.844C136.691 101.707 136.756 102.689 137.235 103.487C137.578 104.07 139.429 107.057 141.6 108.515C141.919 108.729 142.203 109.134 142.41 109.521C141.7 111.205 140.955 113.764 141.624 115.805C142.132 117.323 143.498 121.018 143.883 122.066C144.113 123.53 145.101 129.784 145.651 131.986C145.982 133.361 146.136 137.884 146.136 140.651C146.136 141.145 146.26 141.633 146.503 142.062L149.04 146.656L148.407 146.799C148.123 146.864 147.857 146.965 147.609 147.108L142.446 150.048H140.541L139.459 147.227C139.128 146.346 138.389 145.68 137.466 145.448L132.853 144.275C131.989 144.055 131.079 144.258 130.375 144.799C129.671 145.347 129.263 146.198 129.263 147.09V149.084L121.947 144.567C120.912 143.966 119.593 144.079 118.659 144.859L111.485 150.893L109.995 152.387H105.098L103.288 149.887C102.424 148.15 100.916 144.972 100.538 143.829L99.9524 142.068C99.7631 141.508 99.4201 141.02 98.941 140.669L94.2925 137.152C93.9377 136.896 93.5414 136.712 93.1274 136.628C92.8021 136.563 89.8865 135.985 87.9052 135.985C86.9649 135.985 85.4035 136.134 83.8363 136.289C82.4878 136.426 81.1394 136.569 80.3173 136.569H76.2484C74.6516 136.569 73.3623 137.866 73.3623 139.473V143.192L71.8837 144.186H63.4501C63.1308 144.186 62.8351 144.24 62.5394 144.335L59.5409 145.382C56.0574 145.894 53.5439 145.418 53.5321 145.412C53.26 145.358 52.988 145.335 52.7278 145.364L45.5894 145.971L36.8541 147.144C35.9729 147.269 35.1863 147.792 34.7428 148.578C33.8024 150.238 32.2529 152.416 31.5728 152.881C31.4486 152.958 30.8217 152.898 30.3663 152.696C29.4851 152.256 28.4146 152.303 27.5571 152.827C26.7114 153.357 26.1968 154.291 26.1968 155.303V160.581C25.6172 161.337 25.0731 162.432 25.1855 163.747C25.2565 164.533 25.6291 165.925 27.427 167.062C27.4684 167.145 27.5157 167.229 27.5571 167.312C28.4442 168.752 29.6921 168.752 31.419 168.752H35.5826C35.5708 168.836 35.5471 168.919 35.5353 169.002L34.9498 173.692C34.8374 174.519 35.0976 175.352 35.6477 175.977C36.1918 176.602 36.9902 176.959 37.8122 176.959H39.2198L41.8102 178.827C41.8339 178.893 41.8457 178.952 41.8694 179.018C40.4145 179.03 38.1848 178.952 35.902 178.768L31.2653 179.012C29.8695 179.089 28.7163 180.166 28.5566 181.571C28.249 184.118 29.2485 189.462 35.1627 191.438C37.9483 192.384 39.9413 191.581 41.3253 190.551C42.2774 192.896 41.2779 193.907 40.6096 194.294C39.415 194.895 38.7881 196.252 39.0956 197.561C39.4031 198.871 40.5623 199.793 41.9048 199.793H49.4631C49.747 199.793 50.0191 199.757 50.2852 199.674C53.8455 201.364 59.6 200.228 61.4571 199.793C61.8297 200.233 62.1135 200.591 62.356 200.894C64.284 203.322 65.1653 203.465 69.3584 204.143L71.1208 204.435C74.3973 204.982 75.3376 205.25 75.8285 205.387C76.7156 205.643 77.0468 205.643 78.5904 205.643C81.2399 205.643 85.924 206.774 88.0058 209.291C88.7569 210.184 89.1294 210.856 89.4015 211.35C90.9037 213.986 92.3822 214.433 96.0372 214.433C98.0184 214.433 99.8696 214.016 101.52 213.653C103.105 213.302 105.056 212.868 105.441 213.344C105.796 213.79 105.837 214.201 105.92 215.343C106.032 217.337 106.215 220.342 110.03 223.223C111.94 224.675 113.857 226.323 115.578 227.799C118.724 230.513 120.427 231.953 121.894 232.441C122.166 232.53 122.462 232.584 122.769 232.595C125.076 235.047 125.697 237.779 126.199 239.987L126.424 240.897C126.655 241.826 126.359 244.629 126.14 246.676C125.939 248.568 125.756 250.455 125.756 251.942C125.756 256.626 134.544 270.343 136.945 271.938C137.265 272.146 137.874 272.628 138.708 273.271C144.439 277.675 150.897 282.418 155.066 282.948C157.272 283.227 157.272 283.227 158.106 284.257C158.627 284.9 159.295 285.727 160.366 286.816L162.116 288.524C163.311 289.684 164.813 291.13 164.943 291.595C164.76 292.261 164.511 293.505 164.233 294.987L163.938 294.249C163.405 292.862 161.915 292.112 160.448 292.511L156.379 293.689C155.392 293.969 154.629 294.767 154.38 295.772L153.209 300.45C153.15 300.682 153.121 300.92 153.121 301.158V305.842C153.121 308.067 153.594 312.525 153.7 313.56L153.653 313.572L153.801 314.161C153.824 314.28 153.854 314.393 153.901 314.506C154.026 315.113 154.203 315.774 154.38 316.506C154.871 318.476 155.013 319.987 155.143 321.213C155.321 322.981 155.498 324.641 156.527 326.224C157.018 326.95 157.55 327.373 157.994 327.652C158.136 328.337 158.367 330.199 158.367 335.151C158.367 346.892 158.367 347.85 157.799 352.367C157.225 357.039 157.201 398.482 157.201 404.088C156.977 404.82 156.646 405.909 156.155 407.51C153.901 414.854 152.198 418.9 152.186 418.942C151.926 419.543 151.879 420.204 152.056 420.823C151.814 421.162 151.459 421.638 150.909 422.287C148.07 425.619 146.041 431.505 145.089 434.748H143.203C142.144 434.748 141.168 435.331 140.665 436.272C140.169 437.2 140.204 438.343 140.784 439.235L147.183 449.191C147.301 449.358 147.414 449.525 147.555 449.662C147.964 450.066 149.407 451.256 152.169 450.566C155.48 457.13 157.296 457.749 158.124 458.142C159.295 459.32 160.774 460.469 164.73 460.469C165.842 460.469 166.8 460.296 167.593 459.945C168.415 461.004 168.787 461.897 169.142 462.772C169.929 464.629 170.881 466.944 175.098 468.003C177.801 468.687 180.941 468.687 183.372 468.515C183.443 468.943 183.549 469.384 183.738 469.83C184.206 470.99 185.294 472.538 187.813 473.258C190.362 473.99 191.616 473.758 193 473.043C193.024 473.043 193.443 472.966 194.963 473.299C195.998 473.531 197.329 473.859 197.79 474.097C198.695 474.549 199.186 474.549 200.836 474.549C201.8 474.549 202.551 474.626 203.22 474.686C204.58 474.811 205.981 474.948 207.951 474.454C208.667 474.275 209.293 474.013 209.909 473.746C211.026 473.258 211.156 473.21 212.375 474.121C212.363 474.507 212.416 474.894 212.552 475.239C213.232 476.977 214.462 477.108 217.396 477.441C220.3 477.763 222.316 477.334 223.783 477.019C224.292 476.912 224.996 476.763 225.303 476.882C228.367 479.185 232.027 479.244 235.15 477.007C236.96 475.674 237.06 474.115 236.984 473.674C236.995 473.662 237.173 473.401 237.959 472.871C239.87 471.591 241.786 470.919 242.892 470.615C245.234 471.919 250.409 474.543 253.821 474.543C256.559 474.543 263.006 475.347 265.029 475.602C265.224 475.954 265.472 476.418 265.791 477.043C266.306 478.072 266.164 478.334 266.075 478.518C265.638 479.423 265.567 480.911 266.087 481.774C267.033 483.321 268.423 483.321 270.688 483.321C273.817 483.321 275.041 484.19 276.478 485.213L277.253 485.761C279.081 486.993 289.844 491.652 293.097 493.057C293.464 493.206 293.842 493.289 294.227 493.289H313.797C315.08 493.289 316.375 493.212 317.582 493.146C319.013 493.051 320.988 492.938 321.633 493.146C322.538 493.45 324.04 493.539 325.613 493.539C327.612 493.539 329.747 493.384 330.93 493.277C331.93 493.182 332.811 492.575 333.26 491.664C333.71 490.754 333.645 489.671 333.106 488.814C330.971 485.475 328.482 480.929 328.316 479.834C328.316 479.536 328.269 479.024 328.192 478.322C326.636 463.98 331.409 452.774 342.38 445.02C352.02 442.425 359.099 435.968 359.407 435.688C360.217 434.95 360.323 434.082 360.028 433.028C360.028 433.028 360.448 432.784 361.814 432.921C363.115 433.052 364.806 433.183 366.669 433.326C369.863 433.57 375.192 433.986 378.143 434.498C376.771 437.295 375.203 440.693 376.895 443.443C377.551 444.532 378.965 445.817 381.898 445.817C387.434 445.817 391.479 442.675 393.401 440.794L412.977 444.454C412.989 444.627 413.013 444.805 413.06 444.99C413.249 445.948 414.036 447.632 416.946 448.126C418.809 448.43 425.917 452.066 431.684 455.404C431.879 455.511 432.068 455.595 432.281 455.66L438.444 457.553C438.787 458.16 439.26 458.719 439.928 459.177C441.779 460.445 444.305 460.409 447.593 459.076C450.296 457.987 451.348 457.35 452.253 456.72C452.732 456.392 452.981 456.226 455.299 455.708L460.545 454.524C460.746 454.482 460.941 454.411 461.124 454.327L468.695 450.822C469.718 450.352 470.362 449.316 470.362 448.192V446.43C470.362 445.865 470.209 445.311 469.901 444.829L469.274 443.901L472.255 442.205L483.918 432.219C484.213 431.975 484.456 431.66 484.621 431.32L486.319 427.922L493.682 426.494H505.333C506.415 426.494 507.415 425.875 507.906 424.893C508.408 423.917 508.302 422.745 507.657 421.864L501.045 412.86L504.322 409.938C504.517 409.76 504.694 409.539 504.848 409.307L507.752 404.63C508.042 404.165 508.195 403.636 508.195 403.088V397.816C508.195 397.006 507.852 396.233 507.279 395.691C506.681 395.138 505.936 394.846 505.096 394.917L491.328 396.072H487.874L483.048 393.918L479.245 392.489L477.436 389.758C477.306 389.532 477.116 389.329 476.915 389.157L474.041 386.681L474.437 383.747V381.819L477.891 377.326C478.116 377.034 478.287 376.701 478.394 376.344L479.618 371.916C479.778 371.006 480.251 368.37 480.689 367.084C481.487 364.662 480.884 361.907 480.748 361.377C480.476 360.252 479.553 359.401 478.429 359.211L470.096 357.818L469.753 354.73C469.635 353.718 469.002 352.849 468.091 352.415L461.29 349.219C461.515 348.344 461.911 347.475 462.55 347.255L465.46 346.291L475.289 347.392C476.176 347.487 477.045 347.184 477.655 346.553L486.396 337.763C487.052 337.103 487.366 336.15 487.206 335.228L486.615 331.717C486.479 330.925 486.029 330.229 485.373 329.783L482.327 327.801L480.712 326.188L480.239 321.362C480.133 320.326 479.488 319.428 478.542 319.005L474.029 316.988L471.001 312.596L477.093 308.918C477.56 308.633 477.95 308.222 478.199 307.728L479.358 305.383C479.559 304.979 479.665 304.526 479.665 304.08V297.641C479.665 296.451 478.938 295.38 477.844 294.945L475.869 294.148L473.852 290.631L472.687 289.042V278.895C472.687 277.491 471.669 276.282 470.297 276.038L459.9 274.229H453.495C452.366 274.229 451.331 274.902 450.863 275.949L447.061 284.174V280.061C447.061 279.746 447.007 279.443 446.919 279.145C446.511 277.919 446.168 277.092 445.896 276.425C445.416 275.265 445.31 275.027 445.31 273.61C445.31 271.873 446.268 268.641 446.883 267.017C447.001 266.713 447.049 266.398 447.061 266.088C447.244 265.975 447.469 265.838 447.788 265.678C451.484 263.827 456.192 260.274 456.393 260.119C457.192 259.518 457.623 258.536 457.529 257.537L457.038 252.133L459.179 248.979L464.135 243.111H466.293C467.47 243.111 468.541 242.385 468.973 241.284L471.007 236.178L475.632 232.572C475.886 232.381 476.087 232.149 476.259 231.887L478.601 228.37C479.364 227.216 479.204 225.68 478.234 224.704L475.709 222.175L474.437 221.116L477.507 217.402C478.802 217.486 480.091 217.67 480.736 217.878C482.001 220.485 485.124 222.627 487.827 222.627C489.897 222.627 494.398 221.163 495.728 220.723C495.935 220.658 496.113 220.568 496.302 220.455L499.206 218.7C499.602 218.462 499.933 218.14 500.188 217.748L503.08 213.064C503.618 212.207 503.677 211.136 503.216 210.231L502.056 207.881C501.926 207.601 501.737 207.345 501.524 207.119L498.496 204.072L500.034 194.675L500.584 183.642L507.811 170.77C508.053 170.329 508.183 169.841 508.183 169.335V158.481L512.974 150.994C513.27 150.524 513.429 149.982 513.429 149.423V149.024L519.361 144.037C520.018 143.484 520.396 142.669 520.396 141.806V140.479L524.447 135.42C524.844 134.902 525.068 134.266 525.068 133.605V131.254C525.08 129.767 523.939 128.511 522.448 128.374ZM38.4865 185.314C37.7235 186.153 37.6999 186.165 36.9843 185.921C36.0143 185.594 35.3874 185.112 34.9794 184.594L35.8133 184.54C36.7004 184.624 37.8241 184.707 39.0069 184.767C38.8058 184.969 38.6284 185.159 38.4865 185.314Z" fill="white"/>
<path d="M6.23913 264.224C8.01246 264.224 9.31913 264.564 10.1591 265.244C11.0125 265.911 11.4391 266.924 11.4391 268.284C11.4391 269.044 11.2991 269.677 11.0191 270.184C10.7391 270.691 10.3791 271.097 9.93913 271.404C9.51246 271.697 9.05913 271.931 8.57913 272.104L12.4991 278.504H10.3991L6.93913 272.604H4.09913V278.504H2.29913V264.224H6.23913ZM6.13913 265.784H4.09913V271.084H6.23913C7.39913 271.084 8.2458 270.857 8.77913 270.404C9.31246 269.937 9.57913 269.257 9.57913 268.364C9.57913 267.431 9.29913 266.771 8.73913 266.384C8.17913 265.984 7.31246 265.784 6.13913 265.784ZM18.5605 267.604C19.8672 267.604 20.8339 267.891 21.4605 268.464C22.0872 269.037 22.4005 269.951 22.4005 271.204V278.504H21.1205L20.7805 276.984H20.7005C20.2339 277.571 19.7405 278.004 19.2205 278.284C18.7139 278.564 18.0072 278.704 17.1005 278.704C16.1272 278.704 15.3205 278.451 14.6805 277.944C14.0405 277.424 13.7205 276.617 13.7205 275.524C13.7205 274.457 14.1405 273.637 14.9805 273.064C15.8205 272.477 17.1139 272.157 18.8605 272.104L20.6805 272.044V271.404C20.6805 270.511 20.4872 269.891 20.1005 269.544C19.7139 269.197 19.1672 269.024 18.4605 269.024C17.9005 269.024 17.3672 269.111 16.8605 269.284C16.3539 269.444 15.8805 269.631 15.4405 269.844L14.9005 268.524C15.3672 268.271 15.9205 268.057 16.5605 267.884C17.2005 267.697 17.8672 267.604 18.5605 267.604ZM19.0805 273.324C17.7472 273.377 16.8205 273.591 16.3005 273.964C15.7939 274.337 15.5405 274.864 15.5405 275.544C15.5405 276.144 15.7205 276.584 16.0805 276.864C16.4539 277.144 16.9272 277.284 17.5005 277.284C18.4072 277.284 19.1605 277.037 19.7605 276.544C20.3605 276.037 20.6605 275.264 20.6605 274.224V273.264L19.0805 273.324ZM30.8115 267.584C32.1315 267.584 33.1915 268.044 33.9915 268.964C34.8048 269.884 35.2115 271.271 35.2115 273.124C35.2115 274.951 34.8048 276.337 33.9915 277.284C33.1915 278.231 32.1248 278.704 30.7915 278.704C29.9648 278.704 29.2781 278.551 28.7315 278.244C28.1981 277.924 27.7781 277.557 27.4715 277.144H27.3515C27.3781 277.371 27.4048 277.657 27.4315 278.004C27.4581 278.351 27.4715 278.651 27.4715 278.904V283.304H25.7115V267.784H27.1515L27.3915 269.244H27.4715C27.7915 268.777 28.2115 268.384 28.7315 268.064C29.2515 267.744 29.9448 267.584 30.8115 267.584ZM30.4915 269.064C29.3981 269.064 28.6248 269.371 28.1715 269.984C27.7315 270.597 27.4981 271.531 27.4715 272.784V273.124C27.4715 274.444 27.6848 275.464 28.1115 276.184C28.5515 276.891 29.3581 277.244 30.5315 277.244C31.1848 277.244 31.7181 277.064 32.1315 276.704C32.5581 276.344 32.8715 275.857 33.0715 275.244C33.2848 274.617 33.3915 273.904 33.3915 273.104C33.3915 271.877 33.1515 270.897 32.6715 270.164C32.2048 269.431 31.4781 269.064 30.4915 269.064ZM38.9162 263.764C39.1828 263.764 39.4162 263.857 39.6162 264.044C39.8295 264.217 39.9362 264.497 39.9362 264.884C39.9362 265.257 39.8295 265.537 39.6162 265.724C39.4162 265.911 39.1828 266.004 38.9162 266.004C38.6228 266.004 38.3762 265.911 38.1762 265.724C37.9762 265.537 37.8762 265.257 37.8762 264.884C37.8762 264.497 37.9762 264.217 38.1762 264.044C38.3762 263.857 38.6228 263.764 38.9162 263.764ZM39.7762 267.784V278.504H38.0162V267.784H39.7762ZM46.9724 278.704C45.6391 278.704 44.5724 278.244 43.7724 277.324C42.9724 276.391 42.5724 275.004 42.5724 273.164C42.5724 271.324 42.9724 269.937 43.7724 269.004C44.5857 268.057 45.6591 267.584 46.9924 267.584C47.8191 267.584 48.4924 267.737 49.0124 268.044C49.5457 268.351 49.9791 268.724 50.3124 269.164H50.4324C50.4191 268.991 50.3924 268.737 50.3524 268.404C50.3257 268.057 50.3124 267.784 50.3124 267.584V263.304H52.0724V278.504H50.6524L50.3924 277.064H50.3124C49.9924 277.517 49.5657 277.904 49.0324 278.224C48.4991 278.544 47.8124 278.704 46.9724 278.704ZM47.2524 277.244C48.3857 277.244 49.1791 276.937 49.6324 276.324C50.0991 275.697 50.3324 274.757 50.3324 273.504V273.184C50.3324 271.851 50.1124 270.831 49.6724 270.124C49.2324 269.404 48.4191 269.044 47.2324 269.044C46.2857 269.044 45.5724 269.424 45.0924 270.184C44.6257 270.931 44.3924 271.937 44.3924 273.204C44.3924 274.484 44.6257 275.477 45.0924 276.184C45.5724 276.891 46.2924 277.244 47.2524 277.244ZM59.6171 267.584C60.5371 267.584 61.3238 267.784 61.9771 268.184C62.6438 268.584 63.1504 269.151 63.4971 269.884C63.8571 270.604 64.0371 271.451 64.0371 272.424V273.484H56.6971C56.7238 274.697 57.0304 275.624 57.6171 276.264C58.2171 276.891 59.0504 277.204 60.1171 277.204C60.7971 277.204 61.3971 277.144 61.9171 277.024C62.4504 276.891 62.9971 276.704 63.5571 276.464V278.004C63.0104 278.244 62.4704 278.417 61.9371 278.524C61.4038 278.644 60.7704 278.704 60.0371 278.704C59.0238 278.704 58.1238 278.497 57.3371 278.084C56.5638 277.671 55.9571 277.057 55.5171 276.244C55.0904 275.417 54.8771 274.411 54.8771 273.224C54.8771 272.051 55.0704 271.044 55.4571 270.204C55.8571 269.364 56.4104 268.717 57.1171 268.264C57.8371 267.811 58.6704 267.584 59.6171 267.584ZM59.5971 269.024C58.7571 269.024 58.0904 269.297 57.5971 269.844C57.1171 270.377 56.8304 271.124 56.7371 272.084H62.1971C62.1838 271.177 61.9704 270.444 61.5571 269.884C61.1438 269.311 60.4904 269.024 59.5971 269.024ZM74.9491 267.584C75.8691 267.584 76.6558 267.784 77.3091 268.184C77.9758 268.584 78.4825 269.151 78.8291 269.884C79.1891 270.604 79.3691 271.451 79.3691 272.424V273.484H72.0291C72.0558 274.697 72.3625 275.624 72.9491 276.264C73.5491 276.891 74.3825 277.204 75.4491 277.204C76.1291 277.204 76.7291 277.144 77.2491 277.024C77.7825 276.891 78.3291 276.704 78.8891 276.464V278.004C78.3425 278.244 77.8025 278.417 77.2691 278.524C76.7358 278.644 76.1025 278.704 75.3691 278.704C74.3558 278.704 73.4558 278.497 72.6691 278.084C71.8958 277.671 71.2891 277.057 70.8491 276.244C70.4225 275.417 70.2091 274.411 70.2091 273.224C70.2091 272.051 70.4025 271.044 70.7891 270.204C71.1891 269.364 71.7425 268.717 72.4491 268.264C73.1691 267.811 74.0025 267.584 74.9491 267.584ZM74.9291 269.024C74.0891 269.024 73.4225 269.297 72.9291 269.844C72.4491 270.377 72.1625 271.124 72.0691 272.084H77.5291C77.5158 271.177 77.3025 270.444 76.8891 269.884C76.4758 269.311 75.8225 269.024 74.9291 269.024ZM85.6782 277.264C85.9449 277.264 86.2182 277.244 86.4982 277.204C86.7782 277.151 87.0049 277.097 87.1782 277.044V278.384C86.9915 278.477 86.7249 278.551 86.3782 278.604C86.0315 278.671 85.6982 278.704 85.3782 278.704C84.8182 278.704 84.2982 278.611 83.8182 278.424C83.3515 278.224 82.9715 277.884 82.6782 277.404C82.3849 276.924 82.2382 276.251 82.2382 275.384V269.144H80.7182V268.304L82.2582 267.604L82.9582 265.324H83.9982V267.784H87.0982V269.144H83.9982V275.344C83.9982 275.997 84.1515 276.484 84.4582 276.804C84.7782 277.111 85.1849 277.264 85.6782 277.264ZM7.15913 292.584C8.47913 292.584 9.53913 293.044 10.3391 293.964C11.1525 294.884 11.5591 296.271 11.5591 298.124C11.5591 299.951 11.1525 301.337 10.3391 302.284C9.53913 303.231 8.47246 303.704 7.13913 303.704C6.31246 303.704 5.6258 303.551 5.07913 303.244C4.5458 302.924 4.1258 302.557 3.81913 302.144H3.69913C3.7258 302.371 3.75246 302.657 3.77913 303.004C3.8058 303.351 3.81913 303.651 3.81913 303.904V308.304H2.05913V292.784H3.49913L3.73913 294.244H3.81913C4.13913 293.777 4.55913 293.384 5.07913 293.064C5.59913 292.744 6.29246 292.584 7.15913 292.584ZM6.83913 294.064C5.7458 294.064 4.97246 294.371 4.51913 294.984C4.07913 295.597 3.8458 296.531 3.81913 297.784V298.124C3.81913 299.444 4.03246 300.464 4.45913 301.184C4.89913 301.891 5.7058 302.244 6.87913 302.244C7.53246 302.244 8.0658 302.064 8.47913 301.704C8.9058 301.344 9.21913 300.857 9.41913 300.244C9.63246 299.617 9.73913 298.904 9.73913 298.104C9.73913 296.877 9.49913 295.897 9.01913 295.164C8.55246 294.431 7.8258 294.064 6.83913 294.064ZM19.3638 292.584C19.5638 292.584 19.7772 292.597 20.0038 292.624C20.2438 292.637 20.4505 292.664 20.6238 292.704L20.4038 294.324C20.2305 294.284 20.0372 294.251 19.8238 294.224C19.6238 294.197 19.4305 294.184 19.2438 294.184C18.6972 294.184 18.1838 294.337 17.7038 294.644C17.2238 294.937 16.8372 295.357 16.5438 295.904C16.2638 296.437 16.1238 297.064 16.1238 297.784V303.504H14.3638V292.784H15.8038L16.0038 294.744H16.0838C16.4305 294.157 16.8772 293.651 17.4238 293.224C17.9705 292.797 18.6172 292.584 19.3638 292.584ZM31.5549 298.124C31.5549 299.897 31.1016 301.271 30.1949 302.244C29.3016 303.217 28.0882 303.704 26.5549 303.704C25.6082 303.704 24.7616 303.491 24.0149 303.064C23.2816 302.624 22.7016 301.991 22.2749 301.164C21.8482 300.324 21.6349 299.311 21.6349 298.124C21.6349 296.351 22.0816 294.984 22.9749 294.024C23.8682 293.064 25.0816 292.584 26.6149 292.584C27.5882 292.584 28.4416 292.804 29.1749 293.244C29.9216 293.671 30.5016 294.297 30.9149 295.124C31.3416 295.937 31.5549 296.937 31.5549 298.124ZM23.4549 298.124C23.4549 299.391 23.7016 300.397 24.1949 301.144C24.7016 301.877 25.5016 302.244 26.5949 302.244C27.6749 302.244 28.4682 301.877 28.9749 301.144C29.4816 300.397 29.7349 299.391 29.7349 298.124C29.7349 296.857 29.4816 295.864 28.9749 295.144C28.4682 294.424 27.6682 294.064 26.5749 294.064C25.4816 294.064 24.6882 294.424 24.1949 295.144C23.7016 295.864 23.4549 296.857 23.4549 298.124ZM39.2843 294.144H36.5843V303.504H34.8243V294.144H32.9443V293.324L34.8243 292.724V292.104C34.8243 290.717 35.131 289.724 35.7443 289.124C36.3576 288.511 37.211 288.204 38.3043 288.204C38.731 288.204 39.1176 288.244 39.4643 288.324C39.8243 288.391 40.131 288.471 40.3843 288.564L39.9243 289.944C39.711 289.877 39.4643 289.811 39.1843 289.744C38.9043 289.677 38.6176 289.644 38.3243 289.644C37.7376 289.644 37.2976 289.844 37.0043 290.244C36.7243 290.631 36.5843 291.244 36.5843 292.084V292.784H39.2843V294.144ZM45.3593 292.584C46.2793 292.584 47.066 292.784 47.7193 293.184C48.386 293.584 48.8926 294.151 49.2393 294.884C49.5993 295.604 49.7793 296.451 49.7793 297.424V298.484H42.4393C42.466 299.697 42.7726 300.624 43.3593 301.264C43.9593 301.891 44.7926 302.204 45.8593 302.204C46.5393 302.204 47.1393 302.144 47.6593 302.024C48.1926 301.891 48.7393 301.704 49.2993 301.464V303.004C48.7526 303.244 48.2126 303.417 47.6793 303.524C47.146 303.644 46.5126 303.704 45.7793 303.704C44.766 303.704 43.866 303.497 43.0793 303.084C42.306 302.671 41.6993 302.057 41.2593 301.244C40.8326 300.417 40.6193 299.411 40.6193 298.224C40.6193 297.051 40.8126 296.044 41.1993 295.204C41.5993 294.364 42.1526 293.717 42.8593 293.264C43.5793 292.811 44.4126 292.584 45.3593 292.584ZM45.3393 294.024C44.4993 294.024 43.8326 294.297 43.3393 294.844C42.8593 295.377 42.5726 296.124 42.4793 297.084H47.9393C47.926 296.177 47.7126 295.444 47.2993 294.884C46.886 294.311 46.2326 294.024 45.3393 294.024ZM59.4883 300.544C59.4883 301.584 59.1017 302.371 58.3283 302.904C57.555 303.437 56.515 303.704 55.2083 303.704C54.4617 303.704 53.815 303.644 53.2683 303.524C52.735 303.404 52.2617 303.237 51.8483 303.024V301.424C52.275 301.637 52.7883 301.837 53.3883 302.024C54.0017 302.197 54.6217 302.284 55.2483 302.284C56.1417 302.284 56.7883 302.144 57.1883 301.864C57.5883 301.571 57.7883 301.184 57.7883 300.704C57.7883 300.437 57.715 300.197 57.5684 299.984C57.4217 299.771 57.155 299.557 56.7683 299.344C56.395 299.131 55.855 298.891 55.1483 298.624C54.455 298.357 53.8617 298.091 53.3683 297.824C52.875 297.557 52.495 297.237 52.2283 296.864C51.9617 296.491 51.8283 296.011 51.8283 295.424C51.8283 294.517 52.195 293.817 52.9283 293.324C53.675 292.831 54.6483 292.584 55.8483 292.584C56.5017 292.584 57.1084 292.651 57.6684 292.784C58.2417 292.904 58.775 293.077 59.2683 293.304L58.6683 294.704C58.215 294.517 57.7417 294.357 57.2484 294.224C56.755 294.091 56.2484 294.024 55.7283 294.024C55.0083 294.024 54.455 294.144 54.0683 294.384C53.695 294.611 53.5083 294.924 53.5083 295.324C53.5083 295.617 53.595 295.871 53.7683 296.084C53.9417 296.284 54.2283 296.484 54.6283 296.684C55.0417 296.871 55.5883 297.097 56.2683 297.364C56.9483 297.617 57.5283 297.877 58.0083 298.144C58.4884 298.411 58.855 298.737 59.1084 299.124C59.3617 299.497 59.4883 299.971 59.4883 300.544ZM69.0587 300.544C69.0587 301.584 68.672 302.371 67.8987 302.904C67.1253 303.437 66.0853 303.704 64.7787 303.704C64.032 303.704 63.3853 303.644 62.8387 303.524C62.3053 303.404 61.832 303.237 61.4187 303.024V301.424C61.8453 301.637 62.3587 301.837 62.9587 302.024C63.572 302.197 64.192 302.284 64.8187 302.284C65.712 302.284 66.3587 302.144 66.7587 301.864C67.1587 301.571 67.3587 301.184 67.3587 300.704C67.3587 300.437 67.2853 300.197 67.1387 299.984C66.992 299.771 66.7253 299.557 66.3387 299.344C65.9653 299.131 65.4253 298.891 64.7187 298.624C64.0253 298.357 63.432 298.091 62.9387 297.824C62.4453 297.557 62.0653 297.237 61.7987 296.864C61.532 296.491 61.3987 296.011 61.3987 295.424C61.3987 294.517 61.7653 293.817 62.4987 293.324C63.2453 292.831 64.2187 292.584 65.4187 292.584C66.072 292.584 66.6787 292.651 67.2387 292.784C67.812 292.904 68.3453 293.077 68.8387 293.304L68.2387 294.704C67.7853 294.517 67.312 294.357 66.8187 294.224C66.3253 294.091 65.8187 294.024 65.2987 294.024C64.5787 294.024 64.0253 294.144 63.6387 294.384C63.2653 294.611 63.0787 294.924 63.0787 295.324C63.0787 295.617 63.1653 295.871 63.3387 296.084C63.512 296.284 63.7987 296.484 64.1987 296.684C64.612 296.871 65.1587 297.097 65.8387 297.364C66.5187 297.617 67.0987 297.877 67.5787 298.144C68.0587 298.411 68.4253 298.737 68.6787 299.124C68.932 299.497 69.0587 299.971 69.0587 300.544ZM72.549 288.764C72.8156 288.764 73.049 288.857 73.249 289.044C73.4623 289.217 73.569 289.497 73.569 289.884C73.569 290.257 73.4623 290.537 73.249 290.724C73.049 290.911 72.8156 291.004 72.549 291.004C72.2556 291.004 72.009 290.911 71.809 290.724C71.609 290.537 71.509 290.257 71.509 289.884C71.509 289.497 71.609 289.217 71.809 289.044C72.009 288.857 72.2556 288.764 72.549 288.764ZM73.409 292.784V303.504H71.649V292.784H73.409ZM86.1252 298.124C86.1252 299.897 85.6719 301.271 84.7652 302.244C83.8719 303.217 82.6586 303.704 81.1252 303.704C80.1786 303.704 79.3319 303.491 78.5852 303.064C77.8519 302.624 77.2719 301.991 76.8452 301.164C76.4186 300.324 76.2052 299.311 76.2052 298.124C76.2052 296.351 76.6519 294.984 77.5452 294.024C78.4386 293.064 79.6519 292.584 81.1852 292.584C82.1586 292.584 83.0119 292.804 83.7452 293.244C84.4919 293.671 85.0719 294.297 85.4852 295.124C85.9119 295.937 86.1252 296.937 86.1252 298.124ZM78.0252 298.124C78.0252 299.391 78.2719 300.397 78.7652 301.144C79.2719 301.877 80.0719 302.244 81.1652 302.244C82.2452 302.244 83.0386 301.877 83.5452 301.144C84.0519 300.397 84.3052 299.391 84.3052 298.124C84.3052 296.857 84.0519 295.864 83.5452 295.144C83.0386 294.424 82.2386 294.064 81.1452 294.064C80.0519 294.064 79.2586 294.424 78.7652 295.144C78.2719 295.864 78.0252 296.857 78.0252 298.124ZM94.0746 292.584C95.3546 292.584 96.3213 292.897 96.9746 293.524C97.6279 294.137 97.9546 295.137 97.9546 296.524V303.504H96.2146V296.644C96.2146 294.924 95.4146 294.064 93.8146 294.064C92.6279 294.064 91.8079 294.397 91.3546 295.064C90.9013 295.731 90.6746 296.691 90.6746 297.944V303.504H88.9146V292.784H90.3346L90.5946 294.244H90.6946C91.0413 293.684 91.5213 293.271 92.1346 293.004C92.7479 292.724 93.3946 292.584 94.0746 292.584ZM106.438 292.584C107.718 292.584 108.685 292.897 109.338 293.524C109.991 294.137 110.318 295.137 110.318 296.524V303.504H108.578V296.644C108.578 294.924 107.778 294.064 106.178 294.064C104.991 294.064 104.171 294.397 103.718 295.064C103.265 295.731 103.038 296.691 103.038 297.944V303.504H101.278V292.784H102.698L102.958 294.244H103.058C103.405 293.684 103.885 293.271 104.498 293.004C105.111 292.724 105.758 292.584 106.438 292.584ZM117.781 292.584C118.701 292.584 119.488 292.784 120.141 293.184C120.808 293.584 121.314 294.151 121.661 294.884C122.021 295.604 122.201 296.451 122.201 297.424V298.484H114.861C114.888 299.697 115.194 300.624 115.781 301.264C116.381 301.891 117.214 302.204 118.281 302.204C118.961 302.204 119.561 302.144 120.081 302.024C120.614 301.891 121.161 301.704 121.721 301.464V303.004C121.174 303.244 120.634 303.417 120.101 303.524C119.568 303.644 118.934 303.704 118.201 303.704C117.188 303.704 116.288 303.497 115.501 303.084C114.728 302.671 114.121 302.057 113.681 301.244C113.254 300.417 113.041 299.411 113.041 298.224C113.041 297.051 113.234 296.044 113.621 295.204C114.021 294.364 114.574 293.717 115.281 293.264C116.001 292.811 116.834 292.584 117.781 292.584ZM117.761 294.024C116.921 294.024 116.254 294.297 115.761 294.844C115.281 295.377 114.994 296.124 114.901 297.084H120.361C120.348 296.177 120.134 295.444 119.721 294.884C119.308 294.311 118.654 294.024 117.761 294.024ZM126.69 303.504H124.93V288.304H126.69V303.504Z" fill="white"/>
<path d="M386.46 21H384.66V8.3H380.2V6.72H390.9V8.3H386.46V21ZM396.817 10.08C397.017 10.08 397.231 10.0933 397.457 10.12C397.697 10.1333 397.904 10.16 398.077 10.2L397.857 11.82C397.684 11.78 397.491 11.7467 397.277 11.72C397.077 11.6933 396.884 11.68 396.697 11.68C396.151 11.68 395.637 11.8333 395.157 12.14C394.677 12.4333 394.291 12.8533 393.997 13.4C393.717 13.9333 393.577 14.56 393.577 15.28V21H391.817V10.28H393.257L393.457 12.24H393.537C393.884 11.6533 394.331 11.1467 394.877 10.72C395.424 10.2933 396.071 10.08 396.817 10.08ZM403.748 10.1C405.055 10.1 406.022 10.3867 406.648 10.96C407.275 11.5333 407.588 12.4467 407.588 13.7V21H406.308L405.968 19.48H405.888C405.422 20.0667 404.928 20.5 404.408 20.78C403.902 21.06 403.195 21.2 402.288 21.2C401.315 21.2 400.508 20.9467 399.868 20.44C399.228 19.92 398.908 19.1133 398.908 18.02C398.908 16.9533 399.328 16.1333 400.168 15.56C401.008 14.9733 402.302 14.6533 404.048 14.6L405.868 14.54V13.9C405.868 13.0067 405.675 12.3867 405.288 12.04C404.902 11.6933 404.355 11.52 403.648 11.52C403.088 11.52 402.555 11.6067 402.048 11.78C401.542 11.94 401.068 12.1267 400.628 12.34L400.088 11.02C400.555 10.7667 401.108 10.5533 401.748 10.38C402.388 10.1933 403.055 10.1 403.748 10.1ZM404.268 15.82C402.935 15.8733 402.008 16.0867 401.488 16.46C400.982 16.8333 400.728 17.36 400.728 18.04C400.728 18.64 400.908 19.08 401.268 19.36C401.642 19.64 402.115 19.78 402.688 19.78C403.595 19.78 404.348 19.5333 404.948 19.04C405.548 18.5333 405.848 17.76 405.848 16.72V15.76L404.268 15.82ZM413.259 21L409.199 10.28H411.079L413.359 16.6C413.466 16.8933 413.579 17.22 413.699 17.58C413.819 17.94 413.926 18.2867 414.019 18.62C414.113 18.94 414.179 19.2133 414.219 19.44H414.299C414.353 19.2133 414.426 18.9333 414.519 18.6C414.626 18.2667 414.739 17.92 414.859 17.56C414.993 17.2 415.106 16.88 415.199 16.6L417.479 10.28H419.359L415.279 21H413.259ZM425.115 10.1C426.422 10.1 427.389 10.3867 428.015 10.96C428.642 11.5333 428.955 12.4467 428.955 13.7V21H427.675L427.335 19.48H427.255C426.789 20.0667 426.295 20.5 425.775 20.78C425.269 21.06 424.562 21.2 423.655 21.2C422.682 21.2 421.875 20.9467 421.235 20.44C420.595 19.92 420.275 19.1133 420.275 18.02C420.275 16.9533 420.695 16.1333 421.535 15.56C422.375 14.9733 423.669 14.6533 425.415 14.6L427.235 14.54V13.9C427.235 13.0067 427.042 12.3867 426.655 12.04C426.269 11.6933 425.722 11.52 425.015 11.52C424.455 11.52 423.922 11.6067 423.415 11.78C422.909 11.94 422.435 12.1267 421.995 12.34L421.455 11.02C421.922 10.7667 422.475 10.5533 423.115 10.38C423.755 10.1933 424.422 10.1 425.115 10.1ZM425.635 15.82C424.302 15.8733 423.375 16.0867 422.855 16.46C422.349 16.8333 422.095 17.36 422.095 18.04C422.095 18.64 422.275 19.08 422.635 19.36C423.009 19.64 423.482 19.78 424.055 19.78C424.962 19.78 425.715 19.5333 426.315 19.04C426.915 18.5333 427.215 17.76 427.215 16.72V15.76L425.635 15.82ZM433.166 6.26C433.433 6.26 433.666 6.35333 433.866 6.54C434.08 6.71333 434.186 6.99333 434.186 7.38C434.186 7.75333 434.08 8.03333 433.866 8.22C433.666 8.40667 433.433 8.5 433.166 8.5C432.873 8.5 432.626 8.40667 432.426 8.22C432.226 8.03333 432.126 7.75333 432.126 7.38C432.126 6.99333 432.226 6.71333 432.426 6.54C432.626 6.35333 432.873 6.26 433.166 6.26ZM434.026 10.28V21H432.266V10.28H434.026ZM439.183 21H437.423V5.8H439.183V21ZM444.339 21H442.579V5.8H444.339V21ZM451.875 10.08C452.795 10.08 453.582 10.28 454.235 10.68C454.902 11.08 455.408 11.6467 455.755 12.38C456.115 13.1 456.295 13.9467 456.295 14.92V15.98H448.955C448.982 17.1933 449.288 18.12 449.875 18.76C450.475 19.3867 451.308 19.7 452.375 19.7C453.055 19.7 453.655 19.64 454.175 19.52C454.708 19.3867 455.255 19.2 455.815 18.96V20.5C455.268 20.74 454.728 20.9133 454.195 21.02C453.662 21.14 453.028 21.2 452.295 21.2C451.282 21.2 450.382 20.9933 449.595 20.58C448.822 20.1667 448.215 19.5533 447.775 18.74C447.348 17.9133 447.135 16.9067 447.135 15.72C447.135 14.5467 447.328 13.54 447.715 12.7C448.115 11.86 448.668 11.2133 449.375 10.76C450.095 10.3067 450.928 10.08 451.875 10.08ZM451.855 11.52C451.015 11.52 450.348 11.7933 449.855 12.34C449.375 12.8733 449.088 13.62 448.995 14.58H454.455C454.442 13.6733 454.228 12.94 453.815 12.38C453.402 11.8067 452.748 11.52 451.855 11.52ZM466.867 21.2C465.534 21.2 464.467 20.74 463.667 19.82C462.867 18.8867 462.467 17.5 462.467 15.66C462.467 13.82 462.867 12.4333 463.667 11.5C464.481 10.5533 465.554 10.08 466.887 10.08C467.714 10.08 468.387 10.2333 468.907 10.54C469.441 10.8467 469.874 11.22 470.207 11.66H470.327C470.314 11.4867 470.287 11.2333 470.247 10.9C470.221 10.5533 470.207 10.28 470.207 10.08V5.8H471.967V21H470.547L470.287 19.56H470.207C469.887 20.0133 469.461 20.4 468.927 20.72C468.394 21.04 467.707 21.2 466.867 21.2ZM467.147 19.74C468.281 19.74 469.074 19.4333 469.527 18.82C469.994 18.1933 470.227 17.2533 470.227 16V15.68C470.227 14.3467 470.007 13.3267 469.567 12.62C469.127 11.9 468.314 11.54 467.127 11.54C466.181 11.54 465.467 11.92 464.987 12.68C464.521 13.4267 464.287 14.4333 464.287 15.7C464.287 16.98 464.521 17.9733 464.987 18.68C465.467 19.3867 466.187 19.74 467.147 19.74ZM479.432 10.1C480.739 10.1 481.705 10.3867 482.332 10.96C482.959 11.5333 483.272 12.4467 483.272 13.7V21H481.992L481.652 19.48H481.572C481.105 20.0667 480.612 20.5 480.092 20.78C479.585 21.06 478.879 21.2 477.972 21.2C476.999 21.2 476.192 20.9467 475.552 20.44C474.912 19.92 474.592 19.1133 474.592 18.02C474.592 16.9533 475.012 16.1333 475.852 15.56C476.692 14.9733 477.985 14.6533 479.732 14.6L481.552 14.54V13.9C481.552 13.0067 481.359 12.3867 480.972 12.04C480.585 11.6933 480.039 11.52 479.332 11.52C478.772 11.52 478.239 11.6067 477.732 11.78C477.225 11.94 476.752 12.1267 476.312 12.34L475.772 11.02C476.239 10.7667 476.792 10.5533 477.432 10.38C478.072 10.1933 478.739 10.1 479.432 10.1ZM479.952 15.82C478.619 15.8733 477.692 16.0867 477.172 16.46C476.665 16.8333 476.412 17.36 476.412 18.04C476.412 18.64 476.592 19.08 476.952 19.36C477.325 19.64 477.799 19.78 478.372 19.78C479.279 19.78 480.032 19.5333 480.632 19.04C481.232 18.5333 481.532 17.76 481.532 16.72V15.76L479.952 15.82ZM491.743 10.08C493.023 10.08 493.989 10.3933 494.643 11.02C495.296 11.6333 495.623 12.6333 495.623 14.02V21H493.883V14.14C493.883 12.42 493.083 11.56 491.483 11.56C490.296 11.56 489.476 11.8933 489.023 12.56C488.569 13.2267 488.343 14.1867 488.343 15.44V21H486.583V10.28H488.003L488.263 11.74H488.363C488.709 11.18 489.189 10.7667 489.803 10.5C490.416 10.22 491.063 10.08 491.743 10.08ZM505.926 18.04C505.926 19.08 505.539 19.8667 504.766 20.4C503.993 20.9333 502.953 21.2 501.646 21.2C500.899 21.2 500.253 21.14 499.706 21.02C499.173 20.9 498.699 20.7333 498.286 20.52V18.92C498.713 19.1333 499.226 19.3333 499.826 19.52C500.439 19.6933 501.059 19.78 501.686 19.78C502.579 19.78 503.226 19.64 503.626 19.36C504.026 19.0667 504.226 18.68 504.226 18.2C504.226 17.9333 504.153 17.6933 504.006 17.48C503.859 17.2667 503.593 17.0533 503.206 16.84C502.833 16.6267 502.293 16.3867 501.586 16.12C500.893 15.8533 500.299 15.5867 499.806 15.32C499.313 15.0533 498.933 14.7333 498.666 14.36C498.399 13.9867 498.266 13.5067 498.266 12.92C498.266 12.0133 498.633 11.3133 499.366 10.82C500.113 10.3267 501.086 10.08 502.286 10.08C502.939 10.08 503.546 10.1467 504.106 10.28C504.679 10.4 505.213 10.5733 505.706 10.8L505.106 12.2C504.653 12.0133 504.179 11.8533 503.686 11.72C503.193 11.5867 502.686 11.52 502.166 11.52C501.446 11.52 500.893 11.64 500.506 11.88C500.133 12.1067 499.946 12.42 499.946 12.82C499.946 13.1133 500.033 13.3667 500.206 13.58C500.379 13.78 500.666 13.98 501.066 14.18C501.479 14.3667 502.026 14.5933 502.706 14.86C503.386 15.1133 503.966 15.3733 504.446 15.64C504.926 15.9067 505.293 16.2333 505.546 16.62C505.799 16.9933 505.926 17.4667 505.926 18.04ZM385.28 44.76C385.547 44.76 385.82 44.74 386.1 44.7C386.38 44.6467 386.607 44.5933 386.78 44.54V45.88C386.593 45.9733 386.327 46.0467 385.98 46.1C385.633 46.1667 385.3 46.2 384.98 46.2C384.42 46.2 383.9 46.1067 383.42 45.92C382.953 45.72 382.573 45.38 382.28 44.9C381.987 44.42 381.84 43.7467 381.84 42.88V36.64H380.32V35.8L381.86 35.1L382.56 32.82H383.6V35.28H386.7V36.64H383.6V42.84C383.6 43.4933 383.753 43.98 384.06 44.3C384.38 44.6067 384.787 44.76 385.28 44.76ZM398.247 40.62C398.247 42.3933 397.793 43.7667 396.887 44.74C395.993 45.7133 394.78 46.2 393.247 46.2C392.3 46.2 391.453 45.9867 390.707 45.56C389.973 45.12 389.393 44.4867 388.967 43.66C388.54 42.82 388.327 41.8067 388.327 40.62C388.327 38.8467 388.773 37.48 389.667 36.52C390.56 35.56 391.773 35.08 393.307 35.08C394.28 35.08 395.133 35.3 395.867 35.74C396.613 36.1667 397.193 36.7933 397.607 37.62C398.033 38.4333 398.247 39.4333 398.247 40.62ZM390.147 40.62C390.147 41.8867 390.393 42.8933 390.887 43.64C391.393 44.3733 392.193 44.74 393.287 44.74C394.367 44.74 395.16 44.3733 395.667 43.64C396.173 42.8933 396.427 41.8867 396.427 40.62C396.427 39.3533 396.173 38.36 395.667 37.64C395.16 36.92 394.36 36.56 393.267 36.56C392.173 36.56 391.38 36.92 390.887 37.64C390.393 38.36 390.147 39.3533 390.147 40.62ZM409.996 35.28V46H408.556L408.296 44.58H408.216C407.869 45.14 407.389 45.5533 406.776 45.82C406.163 46.0733 405.509 46.2 404.816 46.2C403.523 46.2 402.549 45.8933 401.896 45.28C401.243 44.6533 400.916 43.66 400.916 42.3V35.28H402.696V42.18C402.696 43.8867 403.489 44.74 405.076 44.74C406.263 44.74 407.083 44.4067 407.536 43.74C408.003 43.0733 408.236 42.1133 408.236 40.86V35.28H409.996ZM416.979 44.76C417.246 44.76 417.519 44.74 417.799 44.7C418.079 44.6467 418.306 44.5933 418.479 44.54V45.88C418.293 45.9733 418.026 46.0467 417.679 46.1C417.333 46.1667 416.999 46.2 416.679 46.2C416.119 46.2 415.599 46.1067 415.119 45.92C414.653 45.72 414.273 45.38 413.979 44.9C413.686 44.42 413.539 43.7467 413.539 42.88V36.64H412.019V35.8L413.559 35.1L414.259 32.82H415.299V35.28H418.399V36.64H415.299V42.84C415.299 43.4933 415.453 43.98 415.759 44.3C416.079 44.6067 416.486 44.76 416.979 44.76ZM424.766 35.08C425.686 35.08 426.472 35.28 427.126 35.68C427.792 36.08 428.299 36.6467 428.646 37.38C429.006 38.1 429.186 38.9467 429.186 39.92V40.98H421.846C421.872 42.1933 422.179 43.12 422.766 43.76C423.366 44.3867 424.199 44.7 425.266 44.7C425.946 44.7 426.546 44.64 427.066 44.52C427.599 44.3867 428.146 44.2 428.706 43.96V45.5C428.159 45.74 427.619 45.9133 427.086 46.02C426.552 46.14 425.919 46.2 425.186 46.2C424.172 46.2 423.272 45.9933 422.486 45.58C421.712 45.1667 421.106 44.5533 420.666 43.74C420.239 42.9133 420.026 41.9067 420.026 40.72C420.026 39.5467 420.219 38.54 420.606 37.7C421.006 36.86 421.559 36.2133 422.266 35.76C422.986 35.3067 423.819 35.08 424.766 35.08ZM424.746 36.52C423.906 36.52 423.239 36.7933 422.746 37.34C422.266 37.8733 421.979 38.62 421.886 39.58H427.346C427.332 38.6733 427.119 37.94 426.706 37.38C426.292 36.8067 425.639 36.52 424.746 36.52ZM437.718 46H435.958V30.8H437.718V46ZM445.174 35.1C446.481 35.1 447.447 35.3867 448.074 35.96C448.701 36.5333 449.014 37.4467 449.014 38.7V46H447.734L447.394 44.48H447.314C446.847 45.0667 446.354 45.5 445.834 45.78C445.327 46.06 444.621 46.2 443.714 46.2C442.741 46.2 441.934 45.9467 441.294 45.44C440.654 44.92 440.334 44.1133 440.334 43.02C440.334 41.9533 440.754 41.1333 441.594 40.56C442.434 39.9733 443.727 39.6533 445.474 39.6L447.294 39.54V38.9C447.294 38.0067 447.101 37.3867 446.714 37.04C446.327 36.6933 445.781 36.52 445.074 36.52C444.514 36.52 443.981 36.6067 443.474 36.78C442.967 36.94 442.494 37.1267 442.054 37.34L441.514 36.02C441.981 35.7667 442.534 35.5533 443.174 35.38C443.814 35.1933 444.481 35.1 445.174 35.1ZM445.694 40.82C444.361 40.8733 443.434 41.0867 442.914 41.46C442.407 41.8333 442.154 42.36 442.154 43.04C442.154 43.64 442.334 44.08 442.694 44.36C443.067 44.64 443.541 44.78 444.114 44.78C445.021 44.78 445.774 44.5333 446.374 44.04C446.974 43.5333 447.274 42.76 447.274 41.72V40.76L445.694 40.82ZM461.308 36.64H458.608V46H456.848V36.64H454.968V35.82L456.848 35.22V34.6C456.848 33.2133 457.155 32.22 457.768 31.62C458.381 31.0067 459.235 30.7 460.328 30.7C460.755 30.7 461.141 30.74 461.488 30.82C461.848 30.8867 462.155 30.9667 462.408 31.06L461.948 32.44C461.735 32.3733 461.488 32.3067 461.208 32.24C460.928 32.1733 460.641 32.14 460.348 32.14C459.761 32.14 459.321 32.34 459.028 32.74C458.748 33.1267 458.608 33.74 458.608 34.58V35.28H461.308V36.64ZM468.243 35.08C468.443 35.08 468.656 35.0933 468.883 35.12C469.123 35.1333 469.33 35.16 469.503 35.2L469.283 36.82C469.11 36.78 468.916 36.7467 468.703 36.72C468.503 36.6933 468.31 36.68 468.123 36.68C467.576 36.68 467.063 36.8333 466.583 37.14C466.103 37.4333 465.716 37.8533 465.423 38.4C465.143 38.9333 465.003 39.56 465.003 40.28V46H463.243V35.28H464.683L464.883 37.24H464.963C465.31 36.6533 465.756 36.1467 466.303 35.72C466.85 35.2933 467.496 35.08 468.243 35.08ZM475.174 35.1C476.481 35.1 477.447 35.3867 478.074 35.96C478.701 36.5333 479.014 37.4467 479.014 38.7V46H477.734L477.394 44.48H477.314C476.847 45.0667 476.354 45.5 475.834 45.78C475.327 46.06 474.621 46.2 473.714 46.2C472.741 46.2 471.934 45.9467 471.294 45.44C470.654 44.92 470.334 44.1133 470.334 43.02C470.334 41.9533 470.754 41.1333 471.594 40.56C472.434 39.9733 473.727 39.6533 475.474 39.6L477.294 39.54V38.9C477.294 38.0067 477.101 37.3867 476.714 37.04C476.327 36.6933 475.781 36.52 475.074 36.52C474.514 36.52 473.981 36.6067 473.474 36.78C472.967 36.94 472.494 37.1267 472.054 37.34L471.514 36.02C471.981 35.7667 472.534 35.5533 473.174 35.38C473.814 35.1933 474.481 35.1 475.174 35.1ZM475.694 40.82C474.361 40.8733 473.434 41.0867 472.914 41.46C472.407 41.8333 472.154 42.36 472.154 43.04C472.154 43.64 472.334 44.08 472.694 44.36C473.067 44.64 473.541 44.78 474.114 44.78C475.021 44.78 475.774 44.5333 476.374 44.04C476.974 43.5333 477.274 42.76 477.274 41.72V40.76L475.694 40.82ZM487.485 35.08C488.765 35.08 489.732 35.3933 490.385 36.02C491.038 36.6333 491.365 37.6333 491.365 39.02V46H489.625V39.14C489.625 37.42 488.825 36.56 487.225 36.56C486.038 36.56 485.218 36.8933 484.765 37.56C484.312 38.2267 484.085 39.1867 484.085 40.44V46H482.325V35.28H483.745L484.005 36.74H484.105C484.452 36.18 484.932 35.7667 485.545 35.5C486.158 35.22 486.805 35.08 487.485 35.08ZM498.988 46.2C498.042 46.2 497.195 46.0067 496.448 45.62C495.715 45.2333 495.135 44.6333 494.708 43.82C494.295 43.0067 494.088 41.9667 494.088 40.7C494.088 39.38 494.308 38.3067 494.748 37.48C495.188 36.6533 495.782 36.0467 496.528 35.66C497.288 35.2733 498.148 35.08 499.108 35.08C499.655 35.08 500.182 35.14 500.688 35.26C501.195 35.3667 501.608 35.5 501.928 35.66L501.388 37.12C501.068 37 500.695 36.8867 500.268 36.78C499.842 36.6733 499.442 36.62 499.068 36.62C496.962 36.62 495.908 37.9733 495.908 40.68C495.908 41.9733 496.162 42.9667 496.668 43.66C497.188 44.34 497.955 44.68 498.968 44.68C499.555 44.68 500.068 44.62 500.508 44.5C500.962 44.38 501.375 44.2333 501.748 44.06V45.62C501.388 45.8067 500.988 45.9467 500.548 46.04C500.122 46.1467 499.602 46.2 498.988 46.2ZM508.438 35.08C509.358 35.08 510.144 35.28 510.798 35.68C511.464 36.08 511.971 36.6467 512.318 37.38C512.678 38.1 512.858 38.9467 512.858 39.92V40.98H505.518C505.544 42.1933 505.851 43.12 506.438 43.76C507.038 44.3867 507.871 44.7 508.938 44.7C509.618 44.7 510.218 44.64 510.738 44.52C511.271 44.3867 511.818 44.2 512.378 43.96V45.5C511.831 45.74 511.291 45.9133 510.758 46.02C510.224 46.14 509.591 46.2 508.858 46.2C507.844 46.2 506.944 45.9933 506.158 45.58C505.384 45.1667 504.778 44.5533 504.338 43.74C503.911 42.9133 503.698 41.9067 503.698 40.72C503.698 39.5467 503.891 38.54 504.278 37.7C504.678 36.86 505.231 36.2133 505.938 35.76C506.658 35.3067 507.491 35.08 508.438 35.08ZM508.418 36.52C507.578 36.52 506.911 36.7933 506.418 37.34C505.938 37.8733 505.651 38.62 505.558 39.58H511.018C511.004 38.6733 510.791 37.94 510.378 37.38C509.964 36.8067 509.311 36.52 508.418 36.52Z" fill="white"/>
<path d="M357.14 485.46H362.08V492.46C361.307 492.713 360.527 492.9 359.74 493.02C358.953 493.14 358.06 493.2 357.06 493.2C355.58 493.2 354.333 492.907 353.32 492.32C352.307 491.72 351.533 490.873 351 489.78C350.48 488.673 350.22 487.367 350.22 485.86C350.22 484.367 350.513 483.073 351.1 481.98C351.687 480.887 352.527 480.04 353.62 479.44C354.727 478.827 356.06 478.52 357.62 478.52C358.42 478.52 359.173 478.593 359.88 478.74C360.6 478.887 361.267 479.093 361.88 479.36L361.2 480.92C360.693 480.693 360.12 480.5 359.48 480.34C358.853 480.18 358.2 480.1 357.52 480.1C355.813 480.1 354.48 480.613 353.52 481.64C352.573 482.667 352.1 484.073 352.1 485.86C352.1 486.993 352.28 488 352.64 488.88C353.013 489.747 353.593 490.427 354.38 490.92C355.167 491.4 356.2 491.64 357.48 491.64C358.107 491.64 358.64 491.607 359.08 491.54C359.52 491.473 359.92 491.393 360.28 491.3V487.06H357.14V485.46ZM369.311 482.1C370.617 482.1 371.584 482.387 372.211 482.96C372.837 483.533 373.151 484.447 373.151 485.7V493H371.871L371.531 491.48H371.451C370.984 492.067 370.491 492.5 369.971 492.78C369.464 493.06 368.757 493.2 367.851 493.2C366.877 493.2 366.071 492.947 365.431 492.44C364.791 491.92 364.471 491.113 364.471 490.02C364.471 488.953 364.891 488.133 365.731 487.56C366.571 486.973 367.864 486.653 369.611 486.6L371.431 486.54V485.9C371.431 485.007 371.237 484.387 370.851 484.04C370.464 483.693 369.917 483.52 369.211 483.52C368.651 483.52 368.117 483.607 367.611 483.78C367.104 483.94 366.631 484.127 366.191 484.34L365.651 483.02C366.117 482.767 366.671 482.553 367.311 482.38C367.951 482.193 368.617 482.1 369.311 482.1ZM369.831 487.82C368.497 487.873 367.571 488.087 367.051 488.46C366.544 488.833 366.291 489.36 366.291 490.04C366.291 490.64 366.471 491.08 366.831 491.36C367.204 491.64 367.677 491.78 368.251 491.78C369.157 491.78 369.911 491.533 370.511 491.04C371.111 490.533 371.411 489.76 371.411 488.72V487.76L369.831 487.82ZM381.462 482.08C381.662 482.08 381.875 482.093 382.102 482.12C382.342 482.133 382.548 482.16 382.722 482.2L382.502 483.82C382.328 483.78 382.135 483.747 381.922 483.72C381.722 483.693 381.528 483.68 381.342 483.68C380.795 483.68 380.282 483.833 379.802 484.14C379.322 484.433 378.935 484.853 378.642 485.4C378.362 485.933 378.222 486.56 378.222 487.28V493H376.462V482.28H377.902L378.102 484.24H378.182C378.528 483.653 378.975 483.147 379.522 482.72C380.068 482.293 380.715 482.08 381.462 482.08ZM388.393 482.1C389.699 482.1 390.666 482.387 391.293 482.96C391.919 483.533 392.233 484.447 392.233 485.7V493H390.953L390.613 491.48H390.533C390.066 492.067 389.573 492.5 389.053 492.78C388.546 493.06 387.839 493.2 386.933 493.2C385.959 493.2 385.153 492.947 384.513 492.44C383.873 491.92 383.553 491.113 383.553 490.02C383.553 488.953 383.973 488.133 384.813 487.56C385.653 486.973 386.946 486.653 388.693 486.6L390.513 486.54V485.9C390.513 485.007 390.319 484.387 389.933 484.04C389.546 483.693 388.999 483.52 388.293 483.52C387.733 483.52 387.199 483.607 386.693 483.78C386.186 483.94 385.713 484.127 385.273 484.34L384.733 483.02C385.199 482.767 385.753 482.553 386.393 482.38C387.033 482.193 387.699 482.1 388.393 482.1ZM388.913 487.82C387.579 487.873 386.653 488.087 386.133 488.46C385.626 488.833 385.373 489.36 385.373 490.04C385.373 490.64 385.553 491.08 385.913 491.36C386.286 491.64 386.759 491.78 387.333 491.78C388.239 491.78 388.993 491.533 389.593 491.04C390.193 490.533 390.493 489.76 390.493 488.72V487.76L388.913 487.82ZM400.704 482.08C401.984 482.08 402.95 482.393 403.604 483.02C404.257 483.633 404.584 484.633 404.584 486.02V493H402.844V486.14C402.844 484.42 402.044 483.56 400.444 483.56C399.257 483.56 398.437 483.893 397.984 484.56C397.53 485.227 397.304 486.187 397.304 487.44V493H395.544V482.28H396.964L397.224 483.74H397.324C397.67 483.18 398.15 482.767 398.764 482.5C399.377 482.22 400.024 482.08 400.704 482.08ZM411.487 491.76C411.754 491.76 412.027 491.74 412.307 491.7C412.587 491.647 412.814 491.593 412.987 491.54V492.88C412.8 492.973 412.534 493.047 412.187 493.1C411.84 493.167 411.507 493.2 411.187 493.2C410.627 493.2 410.107 493.107 409.627 492.92C409.16 492.72 408.78 492.38 408.487 491.9C408.194 491.42 408.047 490.747 408.047 489.88V483.64H406.527V482.8L408.067 482.1L408.767 479.82H409.807V482.28H412.907V483.64H409.807V489.84C409.807 490.493 409.96 490.98 410.267 491.3C410.587 491.607 410.994 491.76 411.487 491.76ZM422.977 493.2C421.643 493.2 420.577 492.74 419.777 491.82C418.977 490.887 418.577 489.5 418.577 487.66C418.577 485.82 418.977 484.433 419.777 483.5C420.59 482.553 421.663 482.08 422.997 482.08C423.823 482.08 424.497 482.233 425.017 482.54C425.55 482.847 425.983 483.22 426.317 483.66H426.437C426.423 483.487 426.397 483.233 426.357 482.9C426.33 482.553 426.317 482.28 426.317 482.08V477.8H428.077V493H426.657L426.397 491.56H426.317C425.997 492.013 425.57 492.4 425.037 492.72C424.503 493.04 423.817 493.2 422.977 493.2ZM423.257 491.74C424.39 491.74 425.183 491.433 425.637 490.82C426.103 490.193 426.337 489.253 426.337 488V487.68C426.337 486.347 426.117 485.327 425.677 484.62C425.237 483.9 424.423 483.54 423.237 483.54C422.29 483.54 421.577 483.92 421.097 484.68C420.63 485.427 420.397 486.433 420.397 487.7C420.397 488.98 420.63 489.973 421.097 490.68C421.577 491.387 422.297 491.74 423.257 491.74ZM435.621 482.08C436.541 482.08 437.328 482.28 437.981 482.68C438.648 483.08 439.155 483.647 439.501 484.38C439.861 485.1 440.041 485.947 440.041 486.92V487.98H432.701C432.728 489.193 433.035 490.12 433.621 490.76C434.221 491.387 435.055 491.7 436.121 491.7C436.801 491.7 437.401 491.64 437.921 491.52C438.455 491.387 439.001 491.2 439.561 490.96V492.5C439.015 492.74 438.475 492.913 437.941 493.02C437.408 493.14 436.775 493.2 436.041 493.2C435.028 493.2 434.128 492.993 433.341 492.58C432.568 492.167 431.961 491.553 431.521 490.74C431.095 489.913 430.881 488.907 430.881 487.72C430.881 486.547 431.075 485.54 431.461 484.7C431.861 483.86 432.415 483.213 433.121 482.76C433.841 482.307 434.675 482.08 435.621 482.08ZM435.601 483.52C434.761 483.52 434.095 483.793 433.601 484.34C433.121 484.873 432.835 485.62 432.741 486.58H438.201C438.188 485.673 437.975 484.94 437.561 484.38C437.148 483.807 436.495 483.52 435.601 483.52ZM453.793 490.04C453.793 491.08 453.407 491.867 452.633 492.4C451.86 492.933 450.82 493.2 449.513 493.2C448.767 493.2 448.12 493.14 447.573 493.02C447.04 492.9 446.567 492.733 446.153 492.52V490.92C446.58 491.133 447.093 491.333 447.693 491.52C448.307 491.693 448.927 491.78 449.553 491.78C450.447 491.78 451.093 491.64 451.493 491.36C451.893 491.067 452.093 490.68 452.093 490.2C452.093 489.933 452.02 489.693 451.873 489.48C451.727 489.267 451.46 489.053 451.073 488.84C450.7 488.627 450.16 488.387 449.453 488.12C448.76 487.853 448.167 487.587 447.673 487.32C447.18 487.053 446.8 486.733 446.533 486.36C446.267 485.987 446.133 485.507 446.133 484.92C446.133 484.013 446.5 483.313 447.233 482.82C447.98 482.327 448.953 482.08 450.153 482.08C450.807 482.08 451.413 482.147 451.973 482.28C452.547 482.4 453.08 482.573 453.573 482.8L452.973 484.2C452.52 484.013 452.047 483.853 451.553 483.72C451.06 483.587 450.553 483.52 450.033 483.52C449.313 483.52 448.76 483.64 448.373 483.88C448 484.107 447.813 484.42 447.813 484.82C447.813 485.113 447.9 485.367 448.073 485.58C448.247 485.78 448.533 485.98 448.933 486.18C449.347 486.367 449.893 486.593 450.573 486.86C451.253 487.113 451.833 487.373 452.313 487.64C452.793 487.907 453.16 488.233 453.413 488.62C453.667 488.993 453.793 489.467 453.793 490.04ZM460.524 482.08C461.444 482.08 462.23 482.28 462.884 482.68C463.55 483.08 464.057 483.647 464.404 484.38C464.764 485.1 464.944 485.947 464.944 486.92V487.98H457.604C457.63 489.193 457.937 490.12 458.524 490.76C459.124 491.387 459.957 491.7 461.024 491.7C461.704 491.7 462.304 491.64 462.824 491.52C463.357 491.387 463.904 491.2 464.464 490.96V492.5C463.917 492.74 463.377 492.913 462.844 493.02C462.31 493.14 461.677 493.2 460.944 493.2C459.93 493.2 459.03 492.993 458.244 492.58C457.47 492.167 456.864 491.553 456.424 490.74C455.997 489.913 455.784 488.907 455.784 487.72C455.784 486.547 455.977 485.54 456.364 484.7C456.764 483.86 457.317 483.213 458.024 482.76C458.744 482.307 459.577 482.08 460.524 482.08ZM460.504 483.52C459.664 483.52 458.997 483.793 458.504 484.34C458.024 484.873 457.737 485.62 457.644 486.58H463.104C463.09 485.673 462.877 484.94 462.464 484.38C462.05 483.807 461.397 483.52 460.504 483.52ZM463.204 477.88C463.044 478.12 462.797 478.433 462.464 478.82C462.13 479.193 461.77 479.573 461.384 479.96C461.01 480.333 460.664 480.64 460.344 480.88H459.184V480.64C459.384 480.387 459.597 480.087 459.824 479.74C460.064 479.393 460.297 479.04 460.524 478.68C460.75 478.307 460.937 477.973 461.084 477.68H463.204V477.88ZM471.973 493.2C471.026 493.2 470.179 493.007 469.433 492.62C468.699 492.233 468.119 491.633 467.693 490.82C467.279 490.007 467.073 488.967 467.073 487.7C467.073 486.38 467.293 485.307 467.733 484.48C468.173 483.653 468.766 483.047 469.513 482.66C470.273 482.273 471.133 482.08 472.093 482.08C472.639 482.08 473.166 482.14 473.673 482.26C474.179 482.367 474.593 482.5 474.913 482.66L474.373 484.12C474.053 484 473.679 483.887 473.253 483.78C472.826 483.673 472.426 483.62 472.053 483.62C469.946 483.62 468.893 484.973 468.893 487.68C468.893 488.973 469.146 489.967 469.653 490.66C470.173 491.34 470.939 491.68 471.953 491.68C472.539 491.68 473.053 491.62 473.493 491.5C473.946 491.38 474.359 491.233 474.733 491.06V492.62C474.373 492.807 473.973 492.947 473.533 493.04C473.106 493.147 472.586 493.2 471.973 493.2ZM486.242 482.28V493H484.802L484.542 491.58H484.462C484.115 492.14 483.635 492.553 483.022 492.82C482.409 493.073 481.755 493.2 481.062 493.2C479.769 493.2 478.795 492.893 478.142 492.28C477.489 491.653 477.162 490.66 477.162 489.3V482.28H478.942V489.18C478.942 490.887 479.735 491.74 481.322 491.74C482.509 491.74 483.329 491.407 483.782 490.74C484.249 490.073 484.482 489.113 484.482 487.86V482.28H486.242ZM494.645 482.08C494.845 482.08 495.059 482.093 495.285 482.12C495.525 482.133 495.732 482.16 495.905 482.2L495.685 483.82C495.512 483.78 495.319 483.747 495.105 483.72C494.905 483.693 494.712 483.68 494.525 483.68C493.979 483.68 493.465 483.833 492.985 484.14C492.505 484.433 492.119 484.853 491.825 485.4C491.545 485.933 491.405 486.56 491.405 487.28V493H489.645V482.28H491.085L491.285 484.24H491.365C491.712 483.653 492.159 483.147 492.705 482.72C493.252 482.293 493.899 482.08 494.645 482.08ZM498.807 478.26C499.074 478.26 499.307 478.353 499.507 478.54C499.72 478.713 499.827 478.993 499.827 479.38C499.827 479.753 499.72 480.033 499.507 480.22C499.307 480.407 499.074 480.5 498.807 480.5C498.514 480.5 498.267 480.407 498.067 480.22C497.867 480.033 497.767 479.753 497.767 479.38C497.767 478.993 497.867 478.713 498.067 478.54C498.267 478.353 498.514 478.26 498.807 478.26ZM499.667 482.28V493H497.907V482.28H499.667ZM506.643 491.76C506.91 491.76 507.183 491.74 507.463 491.7C507.743 491.647 507.97 491.593 508.143 491.54V492.88C507.957 492.973 507.69 493.047 507.343 493.1C506.997 493.167 506.663 493.2 506.343 493.2C505.783 493.2 505.263 493.107 504.783 492.92C504.317 492.72 503.937 492.38 503.643 491.9C503.35 491.42 503.203 490.747 503.203 489.88V483.64H501.683V482.8L503.223 482.1L503.923 479.82H504.963V482.28H508.063V483.64H504.963V489.84C504.963 490.493 505.117 490.98 505.423 491.3C505.743 491.607 506.15 491.76 506.643 491.76ZM514.43 482.08C515.35 482.08 516.137 482.28 516.79 482.68C517.457 483.08 517.963 483.647 518.31 484.38C518.67 485.1 518.85 485.947 518.85 486.92V487.98H511.51C511.537 489.193 511.843 490.12 512.43 490.76C513.03 491.387 513.863 491.7 514.93 491.7C515.61 491.7 516.21 491.64 516.73 491.52C517.263 491.387 517.81 491.2 518.37 490.96V492.5C517.823 492.74 517.283 492.913 516.75 493.02C516.217 493.14 515.583 493.2 514.85 493.2C513.837 493.2 512.937 492.993 512.15 492.58C511.377 492.167 510.77 491.553 510.33 490.74C509.903 489.913 509.69 488.907 509.69 487.72C509.69 486.547 509.883 485.54 510.27 484.7C510.67 483.86 511.223 483.213 511.93 482.76C512.65 482.307 513.483 482.08 514.43 482.08ZM514.41 483.52C513.57 483.52 512.903 483.793 512.41 484.34C511.93 484.873 511.643 485.62 511.55 486.58H517.01C516.997 485.673 516.783 484.94 516.37 484.38C515.957 483.807 515.303 483.52 514.41 483.52ZM517.11 477.88C516.95 478.12 516.703 478.433 516.37 478.82C516.037 479.193 515.677 479.573 515.29 479.96C514.917 480.333 514.57 480.64 514.25 480.88H513.09V480.64C513.29 480.387 513.503 480.087 513.73 479.74C513.97 479.393 514.203 479.04 514.43 478.68C514.657 478.307 514.843 477.973 514.99 477.68H517.11V477.88ZM354.5 518.2C353.167 518.2 352.1 517.74 351.3 516.82C350.5 515.887 350.1 514.5 350.1 512.66C350.1 510.82 350.5 509.433 351.3 508.5C352.113 507.553 353.187 507.08 354.52 507.08C355.347 507.08 356.02 507.233 356.54 507.54C357.073 507.847 357.507 508.22 357.84 508.66H357.96C357.947 508.487 357.92 508.233 357.88 507.9C357.853 507.553 357.84 507.28 357.84 507.08V502.8H359.6V518H358.18L357.92 516.56H357.84C357.52 517.013 357.093 517.4 356.56 517.72C356.027 518.04 355.34 518.2 354.5 518.2ZM354.78 516.74C355.913 516.74 356.707 516.433 357.16 515.82C357.627 515.193 357.86 514.253 357.86 513V512.68C357.86 511.347 357.64 510.327 357.2 509.62C356.76 508.9 355.947 508.54 354.76 508.54C353.813 508.54 353.1 508.92 352.62 509.68C352.153 510.427 351.92 511.433 351.92 512.7C351.92 513.98 352.153 514.973 352.62 515.68C353.1 516.387 353.82 516.74 354.78 516.74ZM367.145 507.08C368.065 507.08 368.851 507.28 369.505 507.68C370.171 508.08 370.678 508.647 371.025 509.38C371.385 510.1 371.565 510.947 371.565 511.92V512.98H364.225C364.251 514.193 364.558 515.12 365.145 515.76C365.745 516.387 366.578 516.7 367.645 516.7C368.325 516.7 368.925 516.64 369.445 516.52C369.978 516.387 370.525 516.2 371.085 515.96V517.5C370.538 517.74 369.998 517.913 369.465 518.02C368.931 518.14 368.298 518.2 367.565 518.2C366.551 518.2 365.651 517.993 364.865 517.58C364.091 517.167 363.485 516.553 363.045 515.74C362.618 514.913 362.405 513.907 362.405 512.72C362.405 511.547 362.598 510.54 362.985 509.7C363.385 508.86 363.938 508.213 364.645 507.76C365.365 507.307 366.198 507.08 367.145 507.08ZM367.125 508.52C366.285 508.52 365.618 508.793 365.125 509.34C364.645 509.873 364.358 510.62 364.265 511.58H369.725C369.711 510.673 369.498 509.94 369.085 509.38C368.671 508.807 368.018 508.52 367.125 508.52ZM379.394 507.08C380.714 507.08 381.774 507.54 382.574 508.46C383.387 509.38 383.794 510.767 383.794 512.62C383.794 514.447 383.387 515.833 382.574 516.78C381.774 517.727 380.707 518.2 379.374 518.2C378.547 518.2 377.86 518.047 377.314 517.74C376.78 517.42 376.36 517.053 376.054 516.64H375.934C375.96 516.867 375.987 517.153 376.014 517.5C376.04 517.847 376.054 518.147 376.054 518.4V522.8H374.294V507.28H375.734L375.974 508.74H376.054C376.374 508.273 376.794 507.88 377.314 507.56C377.834 507.24 378.527 507.08 379.394 507.08ZM379.074 508.56C377.98 508.56 377.207 508.867 376.754 509.48C376.314 510.093 376.08 511.027 376.054 512.28V512.62C376.054 513.94 376.267 514.96 376.694 515.68C377.134 516.387 377.94 516.74 379.114 516.74C379.767 516.74 380.3 516.56 380.714 516.2C381.14 515.84 381.454 515.353 381.654 514.74C381.867 514.113 381.974 513.4 381.974 512.6C381.974 511.373 381.734 510.393 381.254 509.66C380.787 508.927 380.06 508.56 379.074 508.56ZM395.558 507.28V518H394.118L393.858 516.58H393.778C393.432 517.14 392.952 517.553 392.338 517.82C391.725 518.073 391.072 518.2 390.378 518.2C389.085 518.2 388.112 517.893 387.458 517.28C386.805 516.653 386.478 515.66 386.478 514.3V507.28H388.258V514.18C388.258 515.887 389.052 516.74 390.638 516.74C391.825 516.74 392.645 516.407 393.098 515.74C393.565 515.073 393.798 514.113 393.798 512.86V507.28H395.558ZM399.862 503.26C400.128 503.26 400.362 503.353 400.562 503.54C400.775 503.713 400.882 503.993 400.882 504.38C400.882 504.753 400.775 505.033 400.562 505.22C400.362 505.407 400.128 505.5 399.862 505.5C399.568 505.5 399.322 505.407 399.122 505.22C398.922 505.033 398.822 504.753 398.822 504.38C398.822 503.993 398.922 503.713 399.122 503.54C399.322 503.353 399.568 503.26 399.862 503.26ZM400.722 507.28V518H398.962V507.28H400.722ZM411.098 515.04C411.098 516.08 410.711 516.867 409.938 517.4C409.165 517.933 408.125 518.2 406.818 518.2C406.071 518.2 405.425 518.14 404.878 518.02C404.345 517.9 403.871 517.733 403.458 517.52V515.92C403.885 516.133 404.398 516.333 404.998 516.52C405.611 516.693 406.231 516.78 406.858 516.78C407.751 516.78 408.398 516.64 408.798 516.36C409.198 516.067 409.398 515.68 409.398 515.2C409.398 514.933 409.325 514.693 409.178 514.48C409.031 514.267 408.765 514.053 408.378 513.84C408.005 513.627 407.465 513.387 406.758 513.12C406.065 512.853 405.471 512.587 404.978 512.32C404.485 512.053 404.105 511.733 403.838 511.36C403.571 510.987 403.438 510.507 403.438 509.92C403.438 509.013 403.805 508.313 404.538 507.82C405.285 507.327 406.258 507.08 407.458 507.08C408.111 507.08 408.718 507.147 409.278 507.28C409.851 507.4 410.385 507.573 410.878 507.8L410.278 509.2C409.825 509.013 409.351 508.853 408.858 508.72C408.365 508.587 407.858 508.52 407.338 508.52C406.618 508.52 406.065 508.64 405.678 508.88C405.305 509.107 405.118 509.42 405.118 509.82C405.118 510.113 405.205 510.367 405.378 510.58C405.551 510.78 405.838 510.98 406.238 511.18C406.651 511.367 407.198 511.593 407.878 511.86C408.558 512.113 409.138 512.373 409.618 512.64C410.098 512.907 410.465 513.233 410.718 513.62C410.971 513.993 411.098 514.467 411.098 515.04ZM426.431 518H416.991V516.54L420.731 512.76C421.451 512.04 422.058 511.4 422.551 510.84C423.045 510.28 423.418 509.733 423.671 509.2C423.925 508.653 424.051 508.06 424.051 507.42C424.051 506.633 423.818 506.04 423.351 505.64C422.885 505.227 422.278 505.02 421.531 505.02C420.838 505.02 420.225 505.14 419.691 505.38C419.171 505.62 418.638 505.953 418.091 506.38L417.151 505.2C417.711 504.733 418.351 504.34 419.071 504.02C419.805 503.687 420.625 503.52 421.531 503.52C422.865 503.52 423.918 503.86 424.691 504.54C425.465 505.207 425.851 506.133 425.851 507.32C425.851 508.067 425.698 508.767 425.391 509.42C425.085 510.073 424.658 510.72 424.111 511.36C423.565 511.987 422.925 512.66 422.191 513.38L419.211 516.32V516.4H426.431V518ZM437.937 510.84C437.937 512.373 437.777 513.693 437.457 514.8C437.137 515.893 436.63 516.733 435.937 517.32C435.243 517.907 434.323 518.2 433.177 518.2C431.563 518.2 430.37 517.553 429.597 516.26C428.837 514.953 428.457 513.147 428.457 510.84C428.457 509.293 428.61 507.973 428.917 506.88C429.237 505.787 429.743 504.953 430.437 504.38C431.13 503.793 432.043 503.5 433.177 503.5C434.777 503.5 435.97 504.147 436.757 505.44C437.543 506.72 437.937 508.52 437.937 510.84ZM430.217 510.84C430.217 512.8 430.437 514.267 430.877 515.24C431.33 516.213 432.097 516.7 433.177 516.7C434.243 516.7 435.003 516.22 435.457 515.26C435.923 514.287 436.157 512.813 436.157 510.84C436.157 508.893 435.923 507.433 435.457 506.46C435.003 505.487 434.243 505 433.177 505C432.097 505 431.33 505.487 430.877 506.46C430.437 507.433 430.217 508.893 430.217 510.84ZM448.725 507.1C450.032 507.1 450.998 507.387 451.625 507.96C452.252 508.533 452.565 509.447 452.565 510.7V518H451.285L450.945 516.48H450.865C450.398 517.067 449.905 517.5 449.385 517.78C448.878 518.06 448.172 518.2 447.265 518.2C446.292 518.2 445.485 517.947 444.845 517.44C444.205 516.92 443.885 516.113 443.885 515.02C443.885 513.953 444.305 513.133 445.145 512.56C445.985 511.973 447.278 511.653 449.025 511.6L450.845 511.54V510.9C450.845 510.007 450.652 509.387 450.265 509.04C449.878 508.693 449.332 508.52 448.625 508.52C448.065 508.52 447.532 508.607 447.025 508.78C446.518 508.94 446.045 509.127 445.605 509.34L445.065 508.02C445.532 507.767 446.085 507.553 446.725 507.38C447.365 507.193 448.032 507.1 448.725 507.1ZM449.245 512.82C447.912 512.873 446.985 513.087 446.465 513.46C445.958 513.833 445.705 514.36 445.705 515.04C445.705 515.64 445.885 516.08 446.245 516.36C446.618 516.64 447.092 516.78 447.665 516.78C448.572 516.78 449.325 516.533 449.925 516.04C450.525 515.533 450.825 514.76 450.825 513.72V512.76L449.245 512.82ZM461.036 507.08C462.316 507.08 463.282 507.393 463.936 508.02C464.589 508.633 464.916 509.633 464.916 511.02V518H463.176V511.14C463.176 509.42 462.376 508.56 460.776 508.56C459.589 508.56 458.769 508.893 458.316 509.56C457.862 510.227 457.636 511.187 457.636 512.44V518H455.876V507.28H457.296L457.556 508.74H457.656C458.002 508.18 458.482 507.767 459.096 507.5C459.709 507.22 460.356 507.08 461.036 507.08ZM475.219 515.04C475.219 516.08 474.832 516.867 474.059 517.4C473.286 517.933 472.246 518.2 470.939 518.2C470.192 518.2 469.546 518.14 468.999 518.02C468.466 517.9 467.992 517.733 467.579 517.52V515.92C468.006 516.133 468.519 516.333 469.119 516.52C469.732 516.693 470.352 516.78 470.979 516.78C471.872 516.78 472.519 516.64 472.919 516.36C473.319 516.067 473.519 515.68 473.519 515.2C473.519 514.933 473.446 514.693 473.299 514.48C473.152 514.267 472.886 514.053 472.499 513.84C472.126 513.627 471.586 513.387 470.879 513.12C470.186 512.853 469.592 512.587 469.099 512.32C468.606 512.053 468.226 511.733 467.959 511.36C467.692 510.987 467.559 510.507 467.559 509.92C467.559 509.013 467.926 508.313 468.659 507.82C469.406 507.327 470.379 507.08 471.579 507.08C472.232 507.08 472.839 507.147 473.399 507.28C473.972 507.4 474.506 507.573 474.999 507.8L474.399 509.2C473.946 509.013 473.472 508.853 472.979 508.72C472.486 508.587 471.979 508.52 471.459 508.52C470.739 508.52 470.186 508.64 469.799 508.88C469.426 509.107 469.239 509.42 469.239 509.82C469.239 510.113 469.326 510.367 469.499 510.58C469.672 510.78 469.959 510.98 470.359 511.18C470.772 511.367 471.319 511.593 471.999 511.86C472.679 512.113 473.259 512.373 473.739 512.64C474.219 512.907 474.586 513.233 474.839 513.62C475.092 513.993 475.219 514.467 475.219 515.04Z" fill="white"/>
</svg>
