<svg width="91" height="91" viewBox="0 0 91 91" fill="none" xmlns="http://www.w3.org/2000/svg">
<path d="M8.85414 50.9069C15.8293 40.8664 19.9322 34.3979 22.9236 29.6176C11.4275 30.6344 0.408325 44.9391 0.408325 44.9391L7.99634 52.5268C8.21653 51.9657 8.49766 51.4208 8.85414 50.9069Z" fill="black"/>
<path d="M38.4811 83.0119L46.0642 90.5946C46.0642 90.5946 60.3683 79.5763 61.3853 68.0805C56.6065 71.0707 50.14 75.1722 40.0964 82.1491C39.5883 82.5018 39.0466 82.7897 38.4811 83.0119Z" fill="black"/>
<path d="M26.9495 79.0912C25.6478 79.6172 24.3685 80.1762 23.0347 80.6219C19.4722 81.8126 15.8031 82.6172 12.0832 83.1305C10.5239 83.3457 8.95016 83.5282 7.3738 83.6478C7.38881 83.4532 7.40324 83.2583 7.41972 83.064C7.74501 79.2737 8.32168 75.5031 9.25337 71.8122C9.70228 70.031 10.2751 68.2995 10.8901 66.5704C11.2725 65.4953 11.7496 64.4665 12.2309 63.4377L11.3967 62.604C9.54126 63.8504 7.92752 65.4253 6.5581 67.2071C4.53076 69.8455 3.01121 72.8346 1.94883 75.9844C0.807547 79.3664 0.12696 82.9483 0.020986 86.5191C0.00597308 87.0207 -0.0284684 87.5332 0.0492457 88.0309C0.149332 88.6738 0.431635 89.2823 0.855824 89.7754C1.2756 90.2632 1.82813 90.6314 2.44043 90.8289C2.9544 90.9947 3.47132 90.9976 4.00442 90.9935C7.24604 90.9664 10.538 90.4033 13.641 89.4813C19.3162 87.7952 25.0455 84.623 28.4037 79.6104L27.5918 78.7992C27.379 78.8992 27.1656 78.9973 26.9495 79.0912Z" fill="black"/>
<path d="M90.0789 0.926805C90.0789 0.926805 90.0784 0.92651 90.0778 0.925921C89.4873 0.335706 88.6869 0.00512695 87.8538 0.00512695C87.8332 0.00512695 87.8123 0.00542132 87.7917 0.0057157C77.6623 0.204417 52.6711 2.09899 39.399 15.3716C33.3741 21.3965 31.416 24.5328 27.124 31.4058C24.0331 36.3541 19.8015 43.132 12.0678 54.2634C11.1991 55.5145 11.3501 57.208 12.4272 58.2845L32.7177 78.5753C33.3264 79.1843 34.1327 79.4975 34.9443 79.4975C35.5681 79.4975 36.1948 79.3127 36.7388 78.935C47.8743 71.1995 54.6495 66.9688 59.5962 63.8791C66.4686 59.5874 69.6054 57.6287 75.6315 51.6032C88.9271 38.307 90.8084 13.3322 90.9992 3.21142C91.0159 2.35686 90.6833 1.53203 90.0789 0.926805ZM66.5831 39.2119C62.4981 43.2966 55.8759 43.2966 51.7909 39.2119C47.7053 35.1269 47.7059 28.505 51.7915 24.4203C55.8759 20.3353 62.4981 20.3347 66.5831 24.4194C70.6669 28.5041 70.6675 35.1275 66.5831 39.2119Z" fill="black"/>
</svg>
