<svg width="91" height="91" viewBox="0 0 91 91" fill="none" xmlns="http://www.w3.org/2000/svg">
<g clip-path="url(#clip0)">
<path d="M5.97449 33.3412C6.45283 34.9812 7.11665 36.5627 7.95619 38.0465L5.56448 41.063C4.78352 42.049 4.87138 43.4547 5.74996 44.3431L9.86956 48.4626C10.7579 49.351 12.1636 49.429 13.1496 48.648L16.1466 46.2758C17.689 47.1643 19.329 47.8573 21.0374 48.3454L21.4864 52.2014C21.6329 53.451 22.6872 54.3881 23.9367 54.3881H29.7647C31.0142 54.3881 32.0685 53.4509 32.2149 52.2014L32.6445 48.4821C34.4797 48.0037 36.2369 47.2911 37.8867 46.3637L40.786 48.6578C41.772 49.4388 43.1777 49.3509 44.0661 48.4723L48.1857 44.3527C49.074 43.4644 49.1521 42.0586 48.3712 41.0727L46.1161 38.2124C47.0533 36.5918 47.7854 34.864 48.2735 33.058L51.7488 32.6577C52.9985 32.5113 53.9356 31.457 53.9356 30.2075V24.3795C53.9356 23.13 52.9984 22.0757 51.7488 21.9292L48.3224 21.529C47.8537 19.7425 47.1509 18.0342 46.2529 16.4332L48.3615 13.7681C49.1425 12.7822 49.0546 11.3764 48.176 10.4881L44.0662 6.37825C43.1778 5.4899 41.7721 5.4118 40.7861 6.19277L38.1992 8.24281C36.5201 7.25684 34.7238 6.50516 32.8398 5.99753L32.4493 2.64914C32.3029 1.39959 31.2486 0.462433 29.999 0.462433H24.1711C22.9215 0.462433 21.8672 1.39959 21.7208 2.64914L21.3303 5.99753C19.3974 6.51492 17.5524 7.29588 15.8343 8.3209L13.1497 6.19277C12.1637 5.4118 10.758 5.49966 9.86965 6.37825L5.75006 10.4978C4.86171 11.3862 4.78361 12.7919 5.56458 13.7779L7.80986 16.6187C6.91175 18.2392 6.2284 19.9671 5.77935 21.7633L2.1869 22.1733C0.937357 22.3197 0.000198364 23.374 0.000198364 24.6236V30.4515C0.000198364 31.7011 0.937357 32.7554 2.1869 32.9018L5.97449 33.3412ZM27.0899 17.5754C32.4004 17.5754 36.725 21.9 36.725 27.2106C36.725 32.5212 32.4004 36.8458 27.0899 36.8458C21.7794 36.8458 17.4547 32.5212 17.4547 27.2106C17.4547 21.9 21.7793 17.5754 27.0899 17.5754Z" fill="black"/>
<path d="M84.7054 34.7762L81.6304 32.1795C80.6836 31.379 79.2875 31.4181 78.3895 32.2674L76.6909 33.8586C75.256 33.1655 73.7331 32.6774 72.1613 32.3943L71.6831 30.0514C71.4391 28.8409 70.3164 28.0013 69.0862 28.099L65.074 28.4406C63.844 28.548 62.8775 29.5535 62.8385 30.7933L62.7605 33.1752C61.218 33.7317 59.7634 34.4931 58.4358 35.4498L56.4054 34.1026C55.3704 33.4193 53.9941 33.6145 53.1937 34.5614L50.597 37.656C49.7964 38.6029 49.8354 39.9989 50.6846 40.897L52.4614 42.7908C51.8463 44.177 51.407 45.6316 51.1533 47.1251L48.6152 47.6425C47.4047 47.8866 46.5651 49.0092 46.6627 50.2393L47.0044 54.2515C47.1118 55.4816 48.1173 56.448 49.3571 56.487L52.1002 56.5748C52.5983 57.8829 53.2522 59.1228 54.0429 60.2844L52.5103 62.598C51.827 63.6328 52.0222 65.0092 52.969 65.8097L56.0441 68.4064C56.9911 69.2069 58.387 69.1679 59.2852 68.3186L61.2962 66.4345C62.6141 67.0495 64.0002 67.5083 65.4254 67.7817L65.982 70.5346C66.226 71.7451 67.3487 72.5846 68.5787 72.487L72.5909 72.1453C73.8209 72.0379 74.7874 71.0325 74.8264 69.7926L74.9143 67.0982C76.3786 66.5808 77.7647 65.878 79.0435 65.0092L81.2596 66.4735C82.2944 67.1569 83.6708 66.9616 84.4714 66.0147L87.0681 62.9397C87.8685 61.9928 87.8294 60.5968 86.9802 59.6987L85.1936 57.8049C85.8478 56.4187 86.3262 54.9544 86.5994 53.4509L89.0399 52.9531C90.2504 52.709 91.0899 51.5864 90.9923 50.3563L90.6506 46.3441C90.5433 45.114 89.5378 44.1476 88.298 44.1085L85.8477 44.0305C85.34 42.6052 84.6566 41.2581 83.8074 40.0085L85.1447 37.9975C85.8477 36.9629 85.6525 35.5767 84.7054 34.7762ZM69.5842 57.9708C65.2498 58.3418 61.4229 55.1105 61.0618 50.7762C60.6907 46.4419 63.9222 42.6151 68.2563 42.2539C72.5907 41.8829 76.4176 45.1142 76.7787 49.4485C77.1498 53.783 73.9184 57.6097 69.5842 57.9708Z" fill="black"/>
<path d="M20.0123 68.7677C18.7823 68.8946 17.8353 69.9293 17.8256 71.1692L17.7963 73.639C17.7768 74.8788 18.6944 75.9331 19.9244 76.0894L21.7402 76.3236C22.0428 77.4268 22.4723 78.4811 23.0288 79.4768L21.8573 80.9216C21.0763 81.888 21.1349 83.2743 22.0037 84.1626L23.7316 85.9296C24.6005 86.8179 25.9867 86.9155 26.9726 86.1541L28.4271 85.0314C29.4521 85.6367 30.5358 86.1151 31.6681 86.4469L31.8633 88.3213C31.9902 89.5513 33.025 90.4982 34.2648 90.508L36.7347 90.5373C37.9744 90.5568 39.0288 89.6391 39.185 88.4091L39.4095 86.6324C40.6396 86.3297 41.8111 85.871 42.9239 85.2657L44.2906 86.3688C45.257 87.1498 46.6433 87.0912 47.5317 86.2224L49.2986 84.4945C50.187 83.6258 50.2846 82.2395 49.5232 81.2535L48.4785 79.8965C49.1228 78.8227 49.6208 77.6805 49.9624 76.4798L51.5829 76.3138C52.813 76.1869 53.7598 75.1521 53.7696 73.9123L53.7988 71.4424C53.8185 70.2028 52.9008 69.1484 51.6708 68.9922L50.0892 68.7872C49.7866 67.5962 49.3377 66.4443 48.7519 65.3704L49.7379 64.1599C50.5189 63.1935 50.4603 61.8073 49.5915 60.9189L47.8637 59.152C46.9949 58.2636 45.6084 58.1659 44.6226 58.9275L43.4413 59.8354C42.3285 59.1618 41.1374 58.6444 39.888 58.2929L39.7317 56.7603C39.6048 55.5302 38.5701 54.5834 37.3302 54.5736L34.8604 54.5443C33.6206 54.5248 32.5663 55.4424 32.41 56.6724L32.2148 58.1954C30.9263 58.5272 29.6865 59.035 28.5346 59.6987L27.3143 58.703C26.3479 57.922 24.9615 57.9807 24.0732 58.8494L22.2965 60.5871C21.4082 61.4559 21.3105 62.8422 22.072 63.828L23.1165 65.1753C22.5113 66.2491 22.0329 67.3912 21.7205 68.592L20.0123 68.7677ZM35.9537 65.9757C39.4974 66.0147 42.3381 68.9337 42.2991 72.4773C42.2601 76.021 39.3411 78.8616 35.7975 78.8227C32.2538 78.7836 29.4132 75.8648 29.4521 72.321C29.4913 68.7775 32.4101 65.9367 35.9537 65.9757Z" fill="black"/>
</g>
<defs>
<clipPath id="clip0">
<rect width="91" height="91" fill="white"/>
</clipPath>
</defs>
</svg>
